<svg width="160" height="110" viewBox="0 0 160 110" fill="none" xmlns="http://www.w3.org/2000/svg">
<g clip-path="url(#clip0_786_442)">
<path d="M148.22 0H11.7757C8.53473 0 5.88574 2.65142 5.88574 5.89537V104.105C5.88574 107.349 8.53473 110 11.7757 110H148.22C151.457 110 154.11 107.349 154.11 104.105V5.89537C154.11 2.65142 151.457 0 148.22 0Z" fill="#AAA5A3"/>
<path d="M154.11 104.105V5.89537C154.11 2.65142 151.457 0 148.22 0H80.0277V110H148.22C151.457 110 154.11 107.349 154.11 104.105Z" fill="#998C92"/>
<path d="M159.991 102.314H0.00851766C0.00851766 102.374 0 102.429 0 102.489C0 106.603 3.33466 109.94 7.44444 109.94H152.551C156.665 109.94 159.996 106.603 159.996 102.489C159.996 102.429 159.987 102.374 159.987 102.314H159.991Z" fill="#998C92"/>
<path d="M160 102.489C160 102.429 159.992 102.374 159.992 102.314H80.0277V109.94H152.551C156.665 109.94 159.996 106.603 159.996 102.489H160Z" fill="#7C7277"/>
<path d="M80.0277 8.20142H13.1896V94.1681H80.0277V8.20142Z" fill="#B5E8CD"/>
<path d="M146.636 8.20142H80.0277V94.1681H146.636V8.20142Z" fill="#7DCBA3"/>
<path d="M81.8334 32.7677C81.8334 34.7839 80.2023 36.4208 78.1836 36.4208H29.4711C27.4567 36.4208 25.8213 34.7839 25.8213 32.7677C25.8213 30.7514 27.4524 29.1145 29.4711 29.1145H78.1836C80.198 29.1145 81.8334 30.7514 81.8334 32.7677Z" fill="white"/>
<path d="M81.8334 64.1541C81.8334 66.1704 80.2023 67.8073 78.1836 67.8073H29.4711C27.4567 67.8073 25.8213 66.1704 25.8213 64.1541C25.8213 62.1379 27.4524 60.501 29.4711 60.501H78.1836C80.198 60.501 81.8334 62.1379 81.8334 64.1541Z" fill="white"/>
<path d="M81.8334 48.4588C81.8334 50.4751 80.2023 52.112 78.1836 52.112H29.4711C27.4567 52.112 25.8213 50.4751 25.8213 48.4588C25.8213 46.4426 27.4524 44.8057 29.4711 44.8057H78.1836C80.198 44.8057 81.8334 46.4426 81.8334 48.4588Z" fill="white"/>
<path d="M124.997 49.8742C124.997 33.7483 111.935 20.6787 95.8279 20.6787C95.8152 20.6787 95.8024 20.6787 95.7939 20.6787C79.7253 20.7299 66.7103 33.7824 66.7103 49.8742C66.7103 60.0792 71.9444 69.0566 79.8701 74.2741L72.9325 77.808C71.5697 78.5028 71.7059 79.0697 73.2349 79.0697H95.845C111.943 79.0569 124.997 65.9916 124.997 49.8742Z" fill="#009770"/>
<path d="M95.9089 27.5459C95.9089 27.5459 95.8791 27.5459 95.862 27.5459C83.3836 27.5459 73.2689 37.6699 73.2689 50.1597C73.2689 57.6153 76.8719 64.2225 82.4297 68.3446C84.261 65.5312 87.766 63.4041 92.0078 62.6453L95.862 66.2985L95.9089 66.2558V66.2303L99.6907 62.6453C103.937 63.4041 107.438 65.5312 109.269 68.3446C114.827 64.2225 118.43 57.6153 118.43 50.1597C118.43 37.6955 108.353 27.5843 95.9046 27.5459H95.9089Z" fill="white"/>
<path d="M95.8833 27.5459V66.2601L99.6907 62.6496C103.937 63.4083 107.437 65.5354 109.269 68.3488C114.827 64.2268 118.43 57.6195 118.43 50.164C118.43 37.6912 108.34 27.5757 95.879 27.5502L95.8833 27.5459Z" fill="#EEE4EF"/>
<path d="M88.9967 52.7473C88.9967 54.0005 87.9831 55.015 86.731 55.015C85.4789 55.015 84.4653 54.0005 84.4653 52.7473C84.4653 51.494 85.4789 50.4795 86.731 50.4795C87.9831 50.4795 88.9967 51.494 88.9967 52.7473Z" fill="#FFEBD3"/>
<path d="M102.732 52.7473C102.732 54.0005 103.745 55.015 104.997 55.015C106.249 55.015 107.263 54.0005 107.263 52.7473C107.263 51.494 106.249 50.4795 104.997 50.4795C103.745 50.4795 102.732 51.494 102.732 52.7473Z" fill="#ECD0C6"/>
<path d="M95.8875 43.3607C95.8747 43.3223 95.8662 43.301 95.8662 43.301C95.8662 43.301 95.8577 43.3266 95.8449 43.365C95.5724 44.0129 93.0724 49.4522 86.9482 49.3499V51.6006C86.9482 52.1462 86.9993 52.6833 87.093 53.2034C87.6126 56.1404 89.5291 58.5915 92.1312 59.8319L92.0162 62.6453L92.0077 62.8755L95.8023 66.2346L95.8747 66.2985L95.9471 66.2346L99.7418 62.8755L99.729 62.6453L99.614 59.8319C102.216 58.5957 104.133 56.1447 104.652 53.2034C104.746 52.6833 104.793 52.1462 104.793 51.6006V49.3456C98.6472 49.4479 96.1516 43.966 95.8918 43.3564L95.8875 43.3607Z" fill="#FFEBD3"/>
<path d="M95.8876 43.3607C95.8748 43.3223 95.8663 43.301 95.8663 43.301V66.3028L95.9387 66.2388L99.7333 62.8798L99.7206 62.6496L99.6056 59.8362C102.208 58.6 104.124 56.1489 104.644 53.2076C104.737 52.6876 104.784 52.1505 104.784 51.6048V49.3499C98.6388 49.4522 96.1432 43.9703 95.8834 43.3607H95.8876Z" fill="#ECD0C6"/>
<path d="M99.7206 62.6497L97.8041 64.4699L95.8663 66.3028L92.0121 62.6497C87.7703 63.4084 84.2653 65.5355 82.434 68.3489C86.1902 71.1325 90.8366 72.7822 95.8663 72.7822C100.9 72.7822 105.547 71.1368 109.303 68.3489C107.472 65.5355 103.967 63.4084 99.7248 62.6497H99.7206Z" fill="#348CA6"/>
<path d="M99.7206 62.6496L97.8041 64.4698L95.8663 66.3028V72.7736C100.9 72.7736 105.547 71.1282 109.303 68.3404C107.472 65.527 103.967 63.3999 99.7248 62.6411L99.7206 62.6496Z" fill="#096E92"/>
<path d="M104.635 53.2076C105.657 51.5408 106.249 49.5672 106.249 47.4486C106.249 43.6676 104.205 36.634 95.9259 36.634H95.8748H95.8663H95.8535H95.8024C87.5233 36.634 85.4833 43.6676 85.4833 47.4486C85.4833 49.5672 86.0753 51.5366 87.0974 53.2076C87.0037 52.6875 86.9526 52.1504 86.9526 51.6005V49.3498C92.817 49.4478 95.3595 44.4604 95.8024 43.4715C95.8024 43.4715 95.845 43.3777 95.862 43.3308C95.8791 43.3777 95.9217 43.4715 95.9217 43.4715C96.3688 44.4604 98.9071 49.4478 104.772 49.3498V51.6005C104.772 52.1504 104.72 52.6833 104.627 53.2076H104.635Z" fill="#3E4D75"/>
<path d="M95.9259 36.6384C104.205 36.6384 106.249 43.6677 106.249 47.453C106.249 49.5716 105.657 51.541 104.635 53.212C104.729 52.6919 104.78 52.1548 104.78 51.6049V49.3542C98.9114 49.4522 96.3731 44.4648 95.9302 43.4759C95.9302 43.4759 95.8706 43.3352 95.8578 43.3139V36.6384H95.9302H95.9259Z" fill="#353859"/>
</g>
<defs>
<clipPath id="clip0_786_442">
<rect width="160" height="110" fill="white"/>
</clipPath>
</defs>
</svg>
