<svg width="24" height="24" viewBox="0 0 24 24" fill="none" xmlns="http://www.w3.org/2000/svg">
<g id="Frame">
<path id="Vector" d="M22.8075 6.39758L20.5575 4.18883C20.2764 3.90888 19.8958 3.75171 19.4991 3.75171C19.1023 3.75171 18.7218 3.90888 18.4406 4.18883L9.75002 12.7501L9.73971 12.7398L6.30471 9.43321C6.02288 9.15429 5.64208 8.99831 5.24558 8.99936C4.84907 9.00042 4.46911 9.15842 4.18877 9.43883L1.93877 11.6888C1.65796 11.9701 1.50024 12.3512 1.50024 12.7487C1.50024 13.1461 1.65796 13.5273 1.93877 13.8085L8.65314 20.5585C8.79244 20.6978 8.95781 20.8084 9.13982 20.8838C9.32183 20.9592 9.51691 20.998 9.71392 20.998C9.91094 20.998 10.106 20.9592 10.288 20.8838C10.47 20.8084 10.6354 20.6978 10.7747 20.5585L22.8122 8.52289C22.9518 8.38322 23.0624 8.21737 23.1378 8.03485C23.2131 7.85232 23.2516 7.65672 23.2512 7.45926C23.2508 7.2618 23.2114 7.06638 23.1352 6.88419C23.0591 6.702 22.9477 6.53663 22.8075 6.39758ZM9.71439 19.5001L3.00002 12.7501L5.25002 10.5001L5.26033 10.5104L8.69533 13.817C8.97622 14.0952 9.35559 14.2513 9.75096 14.2513C10.1463 14.2513 10.5257 14.0952 10.8066 13.817L19.5056 5.25008L21.75 7.46258L9.71439 19.5001Z" fill="white"/>
</g>
</svg>
