<svg width="52" height="90" viewBox="0 0 52 90" fill="none" xmlns="http://www.w3.org/2000/svg">
<g id="Layer_1" clip-path="url(#clip0_786_470)">
<path id="Vector" d="M46.1989 26.7994C44.461 26.7994 42.9659 27.9081 42.2703 29.5035C42.4701 31.0437 42.5738 32.619 42.5738 34.2194C42.5738 50.0452 32.5334 63.2623 19.1511 66.4355V76.0102H43.3403V64.8426C45.9864 62.9713 48.162 60.4829 49.5457 57.3925C50.4514 55.3707 50.5475 52.9525 50.5475 50.5419V31.5128C50.5475 28.909 48.5996 26.7969 46.1989 26.7969V26.7994Z" fill="#E7C3B5"/>
<path id="Vector_2" d="M50.1806 29.6239C49.5254 27.9207 47.9747 26.7241 46.166 26.7241C44.3572 26.7241 42.8621 27.883 42.1867 29.5411V29.1598C42.1867 26.5561 40.2388 24.4439 37.8381 24.4439C35.8093 24.4439 34.1118 25.9515 33.6287 27.9884V27.0904C33.6287 24.4866 31.6808 22.3745 29.2801 22.3745C27.1374 22.3745 25.359 24.0576 25.0023 26.2701V11.7913C25.0023 9.05707 22.9583 6.8396 20.4362 6.8396C17.914 6.8396 15.87 9.05707 15.87 11.7913V40.9019C12.8849 33.359 6.46702 32.2603 4.38759 32.7344C-0.105204 33.7553 0.605649 36.8131 0.605649 36.8131C0.605649 36.8131 9.68989 43.8493 10.8257 55.1951C11.3747 60.671 14.9492 64.233 19.1182 66.3577V75.935H19.1485V76.0102H43.3377V64.8426C45.9838 62.9713 48.1594 60.4829 49.5431 57.3925C50.4488 55.3707 50.5449 52.9525 50.5449 50.5419V31.5128C50.5449 30.8405 50.4134 30.2008 50.1781 29.6214L50.1806 29.6239Z" fill="#F9DCC0"/>
<path id="Vector_3" d="M44.7696 69.6814C46.4165 69.6814 47.7521 71.0284 47.7521 72.6915V86.9897C47.7521 88.6528 46.4165 89.9999 44.7696 89.9999H18.7463C17.0995 89.9999 15.7638 88.6528 15.7638 86.9897V72.6915C15.7638 71.0284 17.0995 69.6814 18.7463 69.6814H44.7696Z" fill="#348CA6"/>
<path id="Vector_4" d="M42.0754 72.7241C43.654 72.7241 44.9315 73.9934 44.9315 75.5562C44.9315 77.1189 43.654 78.3882 42.0754 78.3882C40.4969 78.3882 39.2194 77.1189 39.2194 75.5562C39.2194 73.9934 40.4994 72.7241 42.0754 72.7241Z" fill="white"/>
</g>
<defs>
<clipPath id="clip0_786_470">
<rect width="50.6957" height="89.913" fill="white" transform="translate(0.565186 0.0869141)"/>
</clipPath>
</defs>
</svg>
