<svg width="166" height="153" viewBox="0 0 166 153" fill="none" xmlns="http://www.w3.org/2000/svg">
<g id="Group">
<path id="Vector" d="M133.531 44.0567L31.8418 44.0447L32.4407 108.402L134.13 108.414L133.531 44.0567Z" fill="#F5F5F5"/>
<path id="Vector_2" d="M77.9093 74.388L33.1493 108.968L134.083 108.993L88.6618 74.3804C85.507 72.113 81.0453 72.1127 77.9093 74.388Z" fill="#45C37E"/>
<path id="Vector_3" d="M77.9323 76.8956L33.1246 108.963L134.076 108.988L88.6771 76.9019C85.5172 74.6712 81.0547 74.6709 77.9323 76.8956Z" fill="#F5F5F5"/>
<path id="Vector_4" d="M77.3002 80.1255C80.47 82.4021 84.9317 82.4025 88.058 80.141L132.828 45.5468L31.8945 45.522L77.3002 80.1255Z" fill="#45C37E"/>
<path id="Vector_5" d="M77.2752 77.6174C80.4351 79.8481 84.8976 79.8484 88.0199 77.6237L132.828 45.5561L31.8759 45.5313L77.2752 77.6174Z" fill="#F5F5F5"/>
</g>
</svg>
