<svg width="118" height="300" viewBox="0 0 118 300" fill="none" xmlns="http://www.w3.org/2000/svg">
<path d="M61.584 262.43C63.3787 264.206 60.9354 265.873 64.2004 269.575C66.0384 271.654 69.4764 272.693 71.6387 273.732C73.4766 274.598 75.8768 275.14 77.6499 275.551C80.0068 276.092 80.9582 276.114 81.7366 277.088C82.8394 278.495 82.5583 280.574 82.515 280.942C82.4502 281.397 82.3204 282.198 81.7799 282.999C81.0447 284.06 79.9203 284.514 78.9473 284.774C73.2172 286.333 66.06 284.384 66.06 284.384C63.422 283.67 62.3192 283.085 59.0758 282.436C57 282.024 55.162 281.678 53.2808 282.479C50.059 283.821 43.2477 283.02 43.1828 279.296C43.1179 275.421 43.4423 272.888 43.4423 272.888C44.3072 266.133 44.7396 262.755 45.3234 262.041C48.5669 258.035 57.454 258.36 61.6056 262.495L61.584 262.43Z" fill="#253956"/>
<path d="M34.859 275.702C38.4484 279.296 36.9997 282.262 41.1945 285.25C43.7677 287.09 46.3407 288.909 49.5193 289.169C49.9734 289.212 50.86 289.255 51.6816 289.84C53.1304 290.879 53.844 293.174 53.2169 295.058C52.7628 296.443 51.7033 297.201 50.7735 297.851C47.0543 300.449 42.7297 299.994 42.254 299.929C39.4214 299.604 37.0646 298.37 34.6212 297.093C32.6535 296.054 31.4858 295.188 29.3235 294.885C27.4207 294.625 25.734 294.798 25.734 294.798C23.9177 294.993 23.3771 295.426 22.2095 295.209C20.5877 294.906 19.55 293.672 19.3553 293.456C17.712 291.507 18.1445 288.714 18.4039 286.614C19.7662 275.702 19.485 273.926 21.4744 272.216C24.7611 269.38 30.7723 271.631 34.859 275.702Z" fill="#253956"/>
<path d="M41.194 297.418C40.0696 297.072 39.8534 296.855 35.5721 294.842C32.7611 293.521 31.3555 292.85 30.7933 292.655C27.312 291.399 26.1228 291.876 22.8361 290.88C21.6468 290.533 20.025 289.927 18.1655 288.866C18.079 290.468 18.252 292.135 19.3548 293.435C19.5494 293.651 20.5656 294.885 22.2089 295.188C23.3766 295.405 23.8955 294.972 25.7335 294.777C25.7335 294.777 27.4202 294.604 29.323 294.863C31.4853 295.167 32.653 296.033 34.6207 297.072C37.0641 298.349 39.4209 299.583 42.2535 299.908C42.7508 299.973 47.0538 300.406 50.773 297.83C51.2487 297.483 51.7676 297.115 52.2217 296.661C50.9892 297.332 49.5405 297.873 47.8756 298.111C44.8267 298.522 42.1887 297.721 41.194 297.418Z" fill="#006E85"/>
<path d="M41.4763 286.441C41.5844 286.224 41.6493 285.921 41.6277 285.553C41.4763 285.445 41.3466 285.358 41.1952 285.25C37.0003 282.262 38.4491 279.296 34.8597 275.702C30.7729 271.631 24.7617 269.38 21.475 272.216C19.8317 273.623 19.7451 275.096 18.9883 281.764C19.7668 282.24 20.6318 282.76 21.6264 283.258C29.6269 287.393 40.1141 289.147 41.5196 286.441H41.4763Z" fill="#F9EFEF"/>
<path d="M33.539 282.696C32.6092 282.717 31.6793 282.696 30.7712 282.652C27.9602 282.457 25.2141 281.83 22.5761 280.747C21.1706 280.184 19.83 279.491 18.5542 278.712L18.8569 278.214C20.111 278.993 21.43 279.665 22.7923 280.206C25.3654 281.245 28.0467 281.873 30.7928 282.068C32.5875 282.198 34.4039 282.133 36.2202 281.873L36.3066 282.457C35.3769 282.587 34.4688 282.674 33.539 282.696Z" fill="#257493"/>
<path d="M37.2805 288.411C37.0859 288.13 36.1777 286.853 36.5885 285.489C37.0426 284.016 38.859 283.107 40.2428 283.41C41.1943 283.626 41.951 284.406 42.2538 284.709C42.5781 285.055 42.7944 285.359 42.8593 285.467C44.5891 288.043 47.2055 288.65 46.9244 289.451C46.4487 290.728 39.5509 291.616 37.3021 288.411H37.2805Z" fill="#253956"/>
<path d="M66.4508 276.59C66.0833 276.438 64.7427 274.706 64.3535 272.346C64.1805 271.285 64.375 269.727 65.24 269.38C65.8887 269.099 66.6454 269.662 68.4401 271.026C73.2188 274.663 73.5864 274.944 73.4783 275.356C73.1972 276.417 68.8943 277.607 66.4725 276.59H66.4508Z" fill="#253956"/>
<path d="M66.644 282.284C60.5247 281.288 61.368 280.898 56.5893 280.271C51.8538 279.643 49.6051 279.838 45.9508 278.473C44.9129 278.084 43.983 277.651 43.183 277.218C43.183 277.846 43.183 278.517 43.183 279.231C43.2479 282.955 50.0376 283.756 53.281 282.414C55.1622 281.635 57.0002 281.959 59.076 282.371C62.3194 283.02 63.4221 283.605 66.0602 284.319C66.0602 284.319 73.2174 286.268 78.9474 284.709C79.9205 284.449 81.0449 283.995 81.7801 282.934C82.2558 282.241 82.4072 281.526 82.4937 281.05C78.4502 283.8 72.5903 283.193 66.644 282.241V282.284Z" fill="#006E85"/>
<path d="M97.327 66.0784C97.9541 65.0608 97.9974 64.7361 98.0406 64.4113C98.192 63.3504 97.7595 62.4194 97.327 61.4884C96.8513 60.4492 96.6135 60.3842 96.4189 59.6264C96.354 59.3883 96.2026 58.6521 96.3756 57.7861C96.527 57.05 96.7649 56.8768 96.8946 55.9458C97.0027 55.2963 96.8946 55.2963 97.0027 54.9282C97.0676 54.7117 97.1973 54.4302 98.2784 53.3693C99.0352 52.6116 99.3596 52.395 99.5542 52.2435C100.116 51.8538 100.419 51.6373 100.83 51.6806C101.284 51.7239 101.695 52.0053 101.89 52.3734C102.192 52.958 101.025 54.69 100.679 55.3829C99.4245 57.8078 99.2947 58.5006 100.441 57.1582C100.484 57.1149 100.657 56.9417 101.219 56.4004C101.846 55.7942 102.257 55.3179 102.43 55.1447C103.922 53.4992 104.592 53.3693 107.057 51.2259C109.458 49.1257 110.647 48.0865 110.668 48.0649C111.274 47.437 112.096 46.5493 112.723 46.7658C113.285 46.9607 113.371 47.935 113.825 47.935C114.171 47.935 114.236 47.4153 114.755 47.2205C115.317 47.0256 116.117 47.372 116.442 47.9133C116.744 48.4546 116.528 49.1041 116.139 49.9918C114.993 52.5466 113.544 54.4086 113.609 54.4735C113.652 54.5168 114.755 53.5642 116.117 52.1352C117.09 51.1176 118.496 52.0053 117.826 53.6724C117.718 53.9539 116.939 55.0365 116.939 55.0365C116.939 55.0365 118.712 55.3179 117.35 58.4573C116.896 59.5182 116.68 60.0162 115.166 62.0947C112.485 65.7537 113.09 65.9052 111.533 67.3991C109.868 68.9796 107.922 70.1921 107.922 70.1921C106.992 70.755 106.733 70.82 106.236 71.2746C104.96 72.4005 104.852 73.8294 104.16 75.0852C103.49 76.3409 89.6509 82.23 90.1266 80.2598C90.8834 77.0987 88.6346 80.4546 97.3487 66.0568L97.327 66.0784Z" fill="#DD8266"/>
<path d="M106.647 57.3747L106.149 56.8767C107.144 55.8807 108.074 54.8632 108.917 53.8239C109.176 53.4992 109.349 53.2827 109.544 53.0445C109.804 52.7197 110.085 52.3517 110.625 51.6805C110.841 51.399 111.036 51.1825 111.209 50.966C111.577 50.5113 111.879 50.1649 112.29 49.6237C112.679 49.1257 113.069 48.606 113.436 48.0864L114.02 48.4978C113.652 49.0174 113.263 49.537 112.852 50.0567C112.42 50.5979 112.117 50.9877 111.75 51.4207C111.577 51.6372 111.382 51.8537 111.166 52.1351C110.625 52.8063 110.344 53.1527 110.085 53.4775C109.89 53.7157 109.717 53.9538 109.458 54.2786C108.593 55.3395 107.641 56.3787 106.647 57.3963V57.3747Z" fill="#C36252"/>
<path d="M111.122 58.0027L110.539 57.613C110.928 57.0285 111.382 56.4655 111.858 55.9459C112.16 55.6211 112.485 55.318 112.809 55.0149L113.285 55.5562C112.96 55.8376 112.658 56.1191 112.377 56.4222C111.922 56.9202 111.512 57.4398 111.122 58.0027Z" fill="#C36252"/>
<path d="M113.609 60.0595L113.026 59.6481C113.653 58.7388 114.301 57.8294 114.972 56.9634C115.447 56.3572 115.923 55.751 116.42 55.1664L116.961 55.621C116.485 56.2056 115.988 56.7902 115.534 57.3964C114.863 58.2625 114.215 59.1501 113.609 60.0378V60.0595Z" fill="#C36252"/>
<path d="M75.7687 75.3444C77.0877 61.5745 72.0279 48.6056 73.8659 48.021C73.8659 48.021 79.4014 50.4459 81.3258 54.5379C86.018 64.4973 86.2342 79.8262 86.3207 80.7139L93.5644 70.6029L106.517 76.1888C106.517 76.1888 94.105 107.518 91.7698 111.307C89.4345 115.095 86.191 115.637 83.6827 114.554C82.7962 114.186 82.0394 113.58 81.3907 112.844C81.3474 112.844 81.3042 112.8 81.261 112.757C75.3795 105.331 75.3146 92.86 75.3578 88.1185C75.4011 82.0779 75.293 80.4541 75.7903 75.3877L75.7687 75.3444Z" fill="#096E92"/>
<path d="M68.6771 268.86C67.8771 265.18 65.9309 253.315 67.8121 233.526C68.9582 221.445 69.2177 219.171 71.1421 202.565C71.8557 196.459 72.007 192.627 72.4395 181.607C74.1045 139.106 74.2558 135.664 71.4664 134.083C64.7417 130.316 47.7676 141.271 43.9188 155.279C43.0538 158.44 43.5295 163.117 44.5241 172.449C46.2107 188.665 49.0002 193.883 48.4164 206.722C48.3731 207.87 48.0487 210.879 47.4217 216.876C46.5351 225.407 45.7134 231.902 44.5674 241.255C42.0375 261.975 43.5512 272.021 43.5512 272.021C47.7461 276.33 70.2555 276.005 68.6986 268.86H68.6771Z" fill="#096E92"/>
<path d="M46.6221 247.274C46.7086 246.148 47.66 239.242 49.5412 225.429C50.8602 215.751 51.4657 211.615 51.9198 205.25C52.5685 196.221 53.1955 184.184 55.1416 168.205C55.7254 163.507 56.6119 150.105 55.4875 149.455C52.9144 147.94 45.4545 163.572 43.9625 165.326C43.9193 165.391 43.8544 165.456 43.8112 165.52C43.9842 167.512 44.222 169.807 44.5031 172.47C46.1897 188.687 48.9791 193.905 48.3952 206.744C48.352 207.891 48.0276 210.901 47.4005 216.898C46.514 225.429 45.6923 231.924 44.5463 241.277C42.0164 261.997 43.5301 272.043 43.5301 272.043C44.395 272.952 45.6923 273.515 47.4222 273.948C45.9951 264.314 46.1464 253.098 46.6005 247.296L46.6221 247.274Z" fill="#004C79"/>
<path d="M56.0054 135.448C57.4974 139.085 52.416 178.273 47.6806 195.616C46.5994 199.578 46.7291 202.089 45.1939 211.226C43.983 218.457 42.7721 225.71 41.5612 232.942C36.8907 260.807 45.0209 278.885 45.3453 286.614C45.5831 292.482 17.4517 286.853 17.3219 283.172C16.5003 259.681 15.6353 246.755 18.122 228.07C18.4679 225.516 19.0084 136.877 20.5869 134.993C26.49 128.022 51.4863 124.493 55.9839 135.448H56.0054Z" fill="#3481A0"/>
<path d="M36.0678 39.5345C36.0246 38.2138 37.0625 36.5683 37.5814 35.7672C37.9923 35.1177 39.7869 32.4113 42.2736 31.5669C48.0469 29.575 55.2906 38.6035 57.2367 41.0284C59.8747 44.3193 61.4965 46.3328 60.8045 47.5886C58.7071 51.5074 36.2624 45.4452 36.0678 39.5345Z" fill="#0C8787"/>
<path d="M15.1603 53.5422C13.9278 54.8412 11.7222 57.1362 11.5709 60.2539C11.4195 63.5449 13.6683 65.2336 16.1333 69.4339C18.7064 73.8291 19.5714 77.6613 20.3714 81.1904C22.1445 89.1146 21.0201 95.9996 20.1984 100.741C18.5983 109.964 16.1982 112.173 17.9497 115.485C20.5228 120.335 22.2743 140.146 25.1502 140.319C31.9614 140.73 71.2936 145.623 73.7803 137.851C74.2992 136.249 76.5263 99.2472 76.5047 96.8873C76.5047 92.9685 75.3587 77.185 76.1804 62.0077C76.5047 55.8588 76.7643 53.4556 75.1425 50.6409C74.2776 49.147 73.8884 48.6707 70.9909 47.5449C66.7095 45.8561 62.6661 46.1808 58.255 43.8209C52.4168 40.7248 47.5948 35.4853 44.5243 31.9346C42.8593 30.0076 40.07 27.0414 40.3727 28.2539C45.7352 50.7492 17.5389 51.0523 15.1603 53.5638V53.5422Z" fill="#F9EFEF"/>
<path d="M39.4 21.3038C37.7134 22.7978 40.9353 30.289 39.5947 36.4595C37.9513 44.0156 32.9131 41.7207 31.2914 42.8249C28.9994 44.3621 36.4161 45.0549 39.2919 46.787C43.3138 49.2335 48.9358 47.1117 52.7847 45.1632C59.3797 41.8289 59.3798 44.86 58.277 43.7991C57.4337 42.9981 56.0066 43.7991 55.1633 38.4297C54.6443 35.1388 54.8173 31.5231 54.0172 28.7085C52.0928 21.975 42.2327 18.8356 39.4217 21.3255L39.4 21.3038Z" fill="#EB8E6C"/>
<path d="M75.4654 49.2982C74.2978 48.0208 73.1518 47.6311 70.2759 46.5053C68.5245 45.8125 61.6916 43.734 59.6158 42.8679C60.0915 52.2428 60.8916 54.9924 60.5672 59.734C59.8753 69.5419 54.3397 82.9871 55.2263 101.737C55.5074 107.561 56.3508 124.102 57.8644 139.929C58.3833 145.472 60.7401 160.735 60.7618 161.948C68.4379 161.493 76.6114 151.794 76.979 148.936C77.1953 147.269 76.4601 107.691 76.4601 105.331C76.4601 101.412 78.4062 83.1386 77.152 61.9857C76.7845 55.8585 78.0169 52.1345 75.4438 49.2982H75.4654Z" fill="#348CA6"/>
<path d="M46.2545 64.4326C45.7788 61.8129 45.5842 58.392 37.5188 46.6356C36.1133 44.5788 34.6646 42.7384 33.2591 41.0713C26.3181 47.8264 11.5712 53.4773 10.7711 56.9414C10.3819 58.6735 11.0522 57.1363 10.9009 60.2324C10.7495 63.5233 12.9983 65.2121 15.4633 69.4124C18.0364 73.8075 18.9014 77.6397 19.7014 81.1688C21.4745 89.093 24.6747 94.5923 23.853 99.3339C22.2529 108.557 18.5122 123.756 20.2637 127.047C22.8368 131.897 27.7668 120.747 30.6427 120.92C33.2807 121.071 40.0487 120.703 47.5086 119.751C47.4653 115.161 47.5086 109.337 47.7681 102.646C48.46 84.0484 47.8978 73.2013 46.2761 64.3677L46.2545 64.4326Z" fill="#17A1A4"/>
<path d="M52.7837 45.1635C51.2485 46.2677 40.9992 42.0241 39.6154 36.4598L38.8368 37.997C38.8368 37.997 36.2637 40.3787 41.41 49.2122L50.0377 53.629L52.7837 45.1852V45.1635Z" fill="#F9EFEF"/>
<path d="M47.1403 64.3461C46.6646 61.7263 45.5835 58.3488 37.5181 46.5923C36.1126 44.5355 34.6639 42.6952 33.2584 41.0281C26.3174 47.7832 11.5705 53.434 10.7704 56.8982C10.3812 58.6303 11.0515 57.093 10.9002 60.1891C10.7488 63.48 12.9976 65.1688 15.4626 69.3691C18.0357 73.7642 18.9007 77.5964 19.7007 81.1255C21.4738 89.0498 20.0468 92.319 19.2251 97.0606C17.625 106.284 14.922 134.906 16.6735 138.197C19.2466 143.047 40.3291 143.762 47.789 142.787C47.7458 138.197 47.508 109.315 47.7458 102.603C48.4378 84.0051 48.7621 73.1147 47.1403 64.2811V64.3461Z" fill="#17A1A4"/>
<path d="M55.0118 48.6705L54.8387 53.2605L58.1255 76.362L56.6335 92.7517L48.4599 71.6204L51.5737 53.0873L50.1033 48.9952L52.5467 45.8342L55.0118 48.6705Z" fill="#3481A0"/>
<path d="M77.3702 95.0688C77.1972 95.0688 77.0458 94.8956 77.0674 94.7224C77.2836 91.5181 78.0837 79.7832 77.0025 64.3461C77.0025 64.1513 77.1323 63.9998 77.3053 63.9998C77.4783 63.9998 77.6296 64.1297 77.6512 64.3029C78.7323 79.8049 77.9107 91.5397 77.7161 94.7657C77.7161 94.9389 77.5431 95.0904 77.3702 95.0688Z" fill="#006397"/>
<path d="M55.7895 40.5518C55.2057 42.3488 53.8434 44.8386 52.7839 45.1634L58.4708 51.9618L59.3789 46.6357C59.3789 46.6357 58.7735 42.89 55.7895 40.5734V40.5518Z" fill="#F9EFEF"/>
<path d="M59.3789 46.6358L56.676 50.2731L52.5245 45.8347L48.4593 51.7021C48.4593 51.7021 42.8158 49.2122 39.4858 44.7305" stroke="#006397" stroke-width="0.14" stroke-miterlimit="10"/>
<path d="M46.9441 64.043C46.4684 61.4232 45.5819 58.3271 37.5165 46.5923C36.111 44.5355 34.6624 42.6952 33.2569 41.0281C26.3159 47.7832 11.5689 53.434 10.7689 56.8982C10.3797 58.6303 11.05 57.093 10.8986 60.1891C10.7473 63.48 12.996 65.1688 15.461 69.3691C18.0342 73.7642 18.8992 77.5964 19.6992 81.1255C21.4723 89.0498 20.0452 92.319 19.2236 97.0606C17.6235 106.284 14.7043 147.854 15.1584 151.556C15.4395 153.808 51.1607 163.962 58.6206 163.009C58.5774 158.419 57.5827 112.649 57.8206 105.937C58.5125 87.3394 48.5659 72.8333 46.9441 63.9997V64.043Z" fill="#348CA6"/>
<path d="M57.5846 101.997C57.5629 102.452 55.0331 99.0092 55.7034 83.4639C56.0061 76.3191 60.3955 63.5234 59.8549 50.1431C59.5738 42.8035 55.1195 40.1404 55.0762 38.7548C55.0546 37.932 58.8602 41.0714 60.482 42.5437C60.936 42.955 62.0172 43.9726 63.3579 46.2243C65.2391 49.3637 67.1635 54.0836 66.0607 54.8847C65.3904 55.361 64.0282 54.3218 63.6606 54.6249C61.3253 56.4869 67.4879 58.1973 67.7041 59.5829C68.1149 62.1377 57.5846 101.997 57.5846 101.997Z" fill="#59A3B8"/>
<path d="M55.7891 40.5515C55.0971 39.5339 55.335 39.772 55.1404 38.408C50.7293 38.5379 47.4858 37.5203 45.064 36.178C42.1881 34.5758 40.4583 31.1766 39.8313 30.657C39.7448 30.7869 39.961 31.956 39.9177 32.1076C40.588 34.2294 43.9613 41.1793 55.7674 40.5515H55.7891Z" fill="#C36252"/>
<path d="M62.8616 17.688C62.9048 19.4418 62.6454 22.1048 61.8021 25.6339C61.0885 28.5784 61.456 31.5446 59.6829 34.7489C58.3639 37.1738 56.8936 38.6677 54.4718 39.6204C47.3146 42.4567 39.4006 32.1508 38.2762 27.2144C37.9086 25.6556 36.6329 19.7016 39.8763 13.596C40.8061 11.8423 43.1198 7.46881 48.1363 5.71509C49.304 5.30372 53.715 3.96135 57.8234 6.34295C63.3589 9.54728 62.8616 16.4972 62.8832 17.688H62.8616Z" fill="#EB8E6C"/>
<path d="M47.3568 20.6548C47.3352 20.3084 47.5947 20.0269 47.919 20.0052C49.2596 19.9403 50.6218 20.0053 51.9408 20.2651C52.7625 20.4166 53.6058 20.6115 54.4059 20.8929C54.7302 21.0012 54.9033 21.3476 54.7736 21.6507C54.6655 21.9538 54.3411 22.1054 54.0383 22.0188C53.2815 21.7806 52.5031 21.5858 51.7247 21.4342C50.4922 21.2177 49.2164 21.1311 47.9623 21.196C47.6379 21.196 47.3784 20.9795 47.3568 20.6548Z" fill="#49302A"/>
<path d="M55.4653 30.9388C55.2491 30.9388 55.0113 30.9388 54.7518 30.9388C54.5789 30.9388 54.4491 30.7872 54.4707 30.6356C54.4707 30.4841 54.622 30.3758 54.795 30.3975C56.0924 30.4841 56.9573 30.2892 57.2384 29.8129C57.4546 29.4448 57.2818 28.9252 56.9358 27.9293C56.8061 27.5612 56.6547 27.1498 56.5033 26.6735C56.179 25.6559 55.9195 24.595 55.7033 23.5558C55.6816 23.4042 55.7897 23.2743 55.9411 23.2527C56.0924 23.231 56.2437 23.3176 56.287 23.4692C56.4816 24.5084 56.7412 25.526 57.0655 26.5436C57.2169 27.0199 57.3683 27.4313 57.4764 27.7994C57.8656 28.9252 58.0818 29.5314 57.7358 30.116C57.3899 30.6789 56.6331 30.9821 55.4438 30.9821L55.4653 30.9388Z" fill="#C36252"/>
<path d="M52.394 23.8589C52.3076 24.5734 51.8534 25.093 51.3993 25.0497C50.9453 24.9848 50.6426 24.3569 50.7507 23.6424C50.8372 22.9279 51.2913 22.4083 51.7454 22.4516C52.1995 22.5166 52.5022 23.1444 52.394 23.8589Z" fill="#49302A"/>
<path d="M60.9355 24.4217C60.8491 25.1362 60.3949 25.6558 59.9408 25.6125C59.4868 25.5475 59.1841 24.9196 59.2922 24.2052C59.3787 23.4907 59.8328 22.9711 60.2869 23.0144C60.741 23.0793 61.0437 23.7072 60.9355 24.4217Z" fill="#49302A"/>
<path d="M57.8653 21.4124C57.8653 21.0876 58.0599 20.7845 58.341 20.7629C58.9032 20.7196 59.4655 20.6979 60.0276 20.7196C60.7845 20.7412 61.5196 20.8278 62.2547 20.9794C62.5358 21.0227 62.6872 21.3474 62.6223 21.6722C62.5574 21.9753 62.2981 22.1918 62.0602 22.1485C61.3683 22.0186 60.6546 21.932 59.9411 21.9104C59.4005 21.9104 58.86 21.9104 58.3626 21.9537C58.1032 21.9753 57.887 21.7588 57.8653 21.434V21.4124Z" fill="#49302A"/>
<path d="M35.7453 49.5804C34.8803 53.3043 33.6695 53.4559 33.7127 57.1798C33.7559 60.4274 40.9348 60.1027 43.8755 58.2624C44.2431 58.0458 44.8486 58.1541 45.2378 58.0459C43.6809 55.5993 41.2808 52.1135 37.5184 46.6575C36.9345 45.8131 36.3507 44.9904 35.7669 44.2109C36.0696 46.376 36.0696 48.1514 35.7453 49.5804Z" fill="#007B90"/>
<path d="M54.8174 34.7712C56.2662 34.9877 57.2392 34.4031 57.7581 33.9052C57.9311 33.732 57.7149 33.4722 57.3906 33.4722H56.6338C55.5527 33.3855 54.4716 33.2557 53.412 33.0175L52.0281 32.7144C51.7254 32.6494 51.4443 32.8226 51.574 33.0391C51.92 33.667 53.3687 34.598 54.8174 34.7929V34.7712Z" fill="#C36252"/>
<path d="M49.693 27.323C49.4984 28.0591 48.3957 28.4055 47.2064 28.0808C46.0388 27.7777 45.2387 26.9116 45.4333 26.1755C45.6279 25.4394 46.7306 25.0929 47.9199 25.4177C49.0875 25.7208 49.8876 26.5869 49.693 27.323Z" fill="#DD8064"/>
<path d="M44.0477 13.5095C45.0208 12.3836 51.9402 14.7869 53.9511 15.5013C59.7461 17.5365 63.1408 18.0994 64.1787 15.9777C65.0653 14.2023 64.9571 8.6813 60.7406 4.97899C48.9345 -5.34849 36.8472 3.59333 36.8472 3.59333C36.8472 3.59333 29.2792 8.83287 33.3876 20.8275C33.3876 20.8275 37.0852 28.9682 39.0961 28.9682C39.9826 28.9682 36.2635 20.8708 37.9933 19.68C38.7285 19.182 41.2367 19.68 42.08 20.7625C43.4206 22.4729 43.1395 21.2388 43.1828 18.7706C43.2476 15.6962 43.1828 14.4621 44.0044 13.5095H44.0477Z" fill="#1C2546"/>
<path d="M41.3671 20.8058C41.3671 20.8058 40.3075 18.9655 39.0101 19.1603C37.756 19.3335 36.9776 21.1955 36.783 22.3863C36.3073 25.2659 38.3831 28.5135 39.767 28.3186C41.3022 28.0805 42.8374 23.4256 41.3671 20.8058Z" fill="#EB8E6C"/>
<path d="M39.6364 26.5433C39.2256 26.4784 38.8795 25.8938 38.7065 25.5257C38.2741 24.6381 37.993 23.339 38.5768 22.5596C38.9228 22.1266 39.6148 21.8018 40.2635 22.0833C40.7176 22.2781 41.0202 22.7328 41.1283 23.2957C41.1716 23.4906 41.0203 23.6854 40.8257 23.7071C40.6743 23.7071 40.5662 23.5988 40.5446 23.4472C40.4797 23.1008 40.2851 22.8194 40.0256 22.7111C39.6581 22.5379 39.2255 22.7111 39.0309 22.9926C38.8147 23.2741 38.7931 23.8153 38.9445 24.4432C39.1607 25.2443 39.7012 25.8722 39.7012 25.8938C40.1553 26.565 39.7013 26.5433 39.6364 26.5433Z" fill="#C36252"/>
<path d="M41.086 28.5567C41.1292 28.3618 41.0426 28.1887 40.8697 28.1454C40.7183 28.1237 40.567 28.2103 40.5238 28.3835C40.4156 28.7949 40.3075 28.8382 40.048 28.7949C39.529 28.7299 39.3562 28.232 39.2264 27.6907C39.1832 27.4958 39.1398 27.3226 38.9668 27.2793C38.383 27.1061 37.4533 25.439 37.3236 23.5121C37.2587 22.4728 37.4533 21.5635 37.8642 20.8057C38.0372 20.5026 38.2534 20.0912 38.6859 19.918C39.1399 19.7232 39.5724 19.918 39.767 19.983C40.4157 20.2428 40.7833 20.849 40.9562 21.2604C41.0211 21.4119 41.1724 21.4769 41.3238 21.4119C41.4968 21.347 41.5617 21.1305 41.4968 20.9572C41.2806 20.4376 40.8265 19.7015 39.9832 19.3551C39.7669 19.2685 39.1615 19.0303 38.4912 19.2901C37.8641 19.5499 37.5397 20.1129 37.3451 20.4593C36.9991 21.0655 36.6316 22.0831 36.7181 23.5554C36.8478 25.6122 37.7992 27.4309 38.6209 27.8423C38.6209 27.8423 38.6209 27.8422 38.6209 27.8639C38.7074 28.2536 38.9669 29.3145 39.9399 29.4444C40.6751 29.5527 40.9562 29.0114 41.0643 28.5351L41.086 28.5567Z" fill="#C36252"/>
<path d="M41.042 23.6208C41.042 23.6208 40.7609 23.794 40.5014 24.1405C39.9825 24.79 40.1554 25.6777 40.0473 25.6993C39.9608 25.6993 39.8095 25.2013 39.8528 24.7034C39.8528 24.4652 39.9176 23.9889 40.242 23.7291C40.5663 23.4693 41.0204 23.5126 41.042 23.6425V23.6208Z" fill="#C36252"/>
<path d="M39.9607 32.9523C39.9607 32.9523 37.3876 34.4029 35.701 36.2866C34.728 37.3908 34.1442 38.0186 33.6685 39.0362C33.063 40.3353 32.9332 41.5261 33.0197 44.3623C33.1927 50.836 33.9279 50.5328 33.7549 54.3001C33.6684 56.2703 33.4305 57.223 34.1225 57.8942C35.355 59.1066 38.2957 58.1973 39.4418 57.8725C40.9986 57.3962 41.5176 56.3786 42.1663 56.6601C42.8582 56.9632 42.1662 58.9118 40.6094 60.2325C39.9391 60.817 36.6092 60.3191 38.4039 64.6493C43.4637 76.7738 57.5835 101.997 57.5835 101.997C57.5835 101.997 56.0482 84.4598 51.0317 71.4909C49.9938 68.8062 45.7124 58.4571 44.9123 57.158C42.4905 53.2176 41.5824 49.9266 40.7391 47.7399C37.5605 39.5125 38.9228 36.3948 39.1823 35.1391C39.3985 34.0565 39.9607 32.9307 39.9607 32.9307V32.9523Z" fill="#59A3B8"/>
<path d="M27.5269 123.02C29.9919 124.038 32.4786 123.367 34.3382 122.782C38.1006 121.591 42.8359 119.686 47.6362 117.564C47.6362 114.035 33.8841 118.56 33.9057 115.832C30.5757 116.676 40.6304 109.034 36.9545 107.886C33.1056 106.674 31.2676 104.552 26.0349 100.72C24.2402 99.399 22.013 97.8618 19.375 96.2163C19.3101 96.4978 19.267 96.8009 19.2237 97.104C18.748 99.8753 18.1641 104.4 17.6235 109.445C18.2506 110.354 18.8993 111.372 19.6129 112.476C23.6348 118.885 24.4996 121.786 27.5269 123.02Z" fill="#007B90"/>
<path d="M77.6915 83.724C77.6915 83.724 77.7355 83.724 77.7575 83.702C77.8235 83.702 77.6035 83.746 77.6915 83.724Z" fill="#EB8E6C"/>
<path d="M63.9184 127.09C64.8699 127.22 65.5617 127.242 65.9942 126.787C66.4266 126.333 66.5131 125.467 66.1455 124.969C65.8212 124.536 65.3022 124.622 65.1941 124.298C65.0644 123.843 65.9727 123.496 65.9727 122.89C65.9727 122.219 64.8914 121.699 64.1346 121.31C64.113 121.31 62.7507 120.465 60.0478 118.777C57.2585 117.044 56.9342 116.46 54.9448 115.507C54.7286 115.399 54.1665 115.139 53.3881 114.728C52.7177 114.36 52.5015 114.252 52.4366 114.208C50.8149 113.515 51.5285 113.429 54.2097 113.905C54.9665 114.035 56.9775 114.641 57.4532 114.187C57.7559 113.905 57.9072 113.407 57.7991 112.952C57.7126 112.541 57.4315 112.325 56.891 111.892C56.6964 111.74 56.3721 111.502 55.4423 111.004C54.1233 110.289 53.8204 110.246 53.5826 110.246C53.215 110.246 53.2367 110.333 52.588 110.441C51.6582 110.571 51.4204 110.398 50.6852 110.484C49.7986 110.571 49.15 110.939 48.9337 111.069C48.2418 111.459 48.2634 111.718 47.4201 112.476C46.6633 113.147 45.9065 113.84 44.8469 114.013C44.5226 114.057 44.1982 114.1 43.0306 113.818C26.7268 109.726 20.9968 120.855 30.965 121.916C32.8895 122.111 35.0301 122.717 36.4356 122.998C37.8411 123.28 39.2466 122.998 40.6954 123.865C41.2792 124.211 41.3872 124.449 42.2089 125.164C42.2089 125.164 43.9172 126.679 45.9281 127.805C47.8093 128.844 47.7877 128.238 52.0691 129.732C54.5125 130.576 55.053 130.641 56.1774 130.75C59.5722 131.118 59.3127 129.342 59.3127 129.342C59.3127 129.342 60.5884 129.754 60.8695 129.775C62.6642 129.927 63.0967 128.303 61.8209 127.675C60.0479 126.787 58.8153 126.008 58.837 125.965C58.8586 125.9 61.0858 126.722 63.8535 127.069L63.9184 127.09Z" fill="#EB8E6C"/>
<path d="M54.1226 120.184L54.447 119.556C55.6795 120.227 56.9336 120.812 58.1877 121.31C58.5769 121.461 58.8364 121.57 59.1175 121.678C59.5067 121.829 59.9392 121.981 60.7392 122.306C61.0636 122.436 61.3447 122.566 61.6042 122.652C62.1448 122.869 62.5772 123.064 63.2043 123.302C63.7881 123.518 64.3936 123.735 64.999 123.951L64.7827 124.622C64.1773 124.428 63.5719 124.211 62.9665 123.973C62.3178 123.735 61.8637 123.54 61.3447 123.323C61.0853 123.215 60.8257 123.107 60.4798 122.977C59.6797 122.652 59.2689 122.501 58.8797 122.349C58.5986 122.241 58.3175 122.133 57.9283 121.981C56.6741 121.461 55.3983 120.877 54.1226 120.206V120.184Z" fill="#C36252"/>
<path d="M54.8145 124.644L55.0091 123.951C55.6795 124.146 56.3497 124.406 56.9984 124.73C57.3876 124.925 57.7768 125.142 58.166 125.38L57.7985 125.986C57.4525 125.77 57.0633 125.553 56.6957 125.38C56.0902 125.098 55.4632 124.839 54.8145 124.644Z" fill="#C36252"/>
<path d="M53.5814 127.61L53.7977 126.939C54.8572 127.264 55.8952 127.632 56.9331 128.022C57.6466 128.281 58.3602 128.585 59.0737 128.866L58.7926 129.516C58.1007 129.212 57.387 128.931 56.6735 128.671C55.6572 128.281 54.6193 127.935 53.5814 127.61Z" fill="#C36252"/>
<path d="M38.5981 108.687C36.1115 107.735 19.5483 106.003 19.5483 106.003C19.5483 106.003 21.2133 101.023 21.7755 97.8402C21.8188 97.5588 24.9109 80.8443 25.5595 73.8294C25.646 72.9201 25.9919 68.8497 25.2135 63.6535C24.4783 58.7604 23.4188 57.3098 22.9215 56.7252C22.7917 56.5736 19.6781 52.9579 15.6562 53.4776C13.1047 53.8023 11.2883 55.6427 9.45038 58.1542C3.5473 66.2732 1.96886 75.2367 1.51478 78.2462C0.412003 85.5642 1.06068 91.4099 1.77424 98.9228C2.55267 106.934 3.33105 106.133 3.48241 111.762C3.59053 115.702 3.26621 117.846 4.86631 119.578C6.01233 120.812 30.8139 123.258 35.7655 124.341C36.3926 119.383 37.1494 110.917 38.5981 108.666V108.687Z" fill="#59A3B8"/>
<path d="M20.523 105.895C20.5447 105.397 21.1717 103.123 21.6906 101.283C22.2528 99.2261 22.8584 97.0827 23.1395 95.6754C23.7233 92.7958 24.3287 89.4399 24.8909 85.9325C25.5396 81.9487 25.8855 79.762 26.1883 76.7092C26.4261 74.3276 26.5991 71.9027 26.6855 69.5211L25.7126 69.4778C25.6261 71.8377 25.4531 74.241 25.2152 76.6009C24.9125 79.6104 24.5882 81.6673 23.9179 85.7593C23.3557 89.2451 22.7503 92.601 22.1881 95.4589C21.907 96.8445 21.3014 99.0529 20.7609 101.002C19.8959 104.098 19.5284 105.505 19.5716 105.981C19.6149 106.544 20.7393 106.198 20.5447 105.873L20.523 105.895Z" fill="#006397"/>
<path d="M11.4179 111.87L10.8341 111.459C12.5423 109.099 14.7695 107.302 17.2777 106.284C17.8832 106.025 18.7265 105.873 19.4184 105.722C19.613 105.678 19.8076 105.635 19.959 105.613L20.1104 106.306C19.959 106.349 19.7644 106.371 19.5481 106.414C18.8994 106.544 18.0994 106.696 17.5372 106.934C15.1587 107.908 13.0396 109.597 11.3962 111.87H11.4179Z" fill="#007B90"/>
</svg>
