<svg width="110" height="110" viewBox="0 0 110 110" fill="none" xmlns="http://www.w3.org/2000/svg">
<g id="Layer_1" clip-path="url(#clip0_786_428)">
<path id="Vector" d="M56.5694 33.8986C56.5694 46.3335 46.475 56.4108 34.0258 56.4108C21.5766 56.4108 11.4822 46.3306 11.4822 33.8986C11.4822 21.4667 21.5737 11.3865 34.0258 11.3865C46.4779 11.3865 56.5694 21.4667 56.5694 33.8986Z" fill="white"/>
<path id="Vector_2" d="M49.8569 18.0463C41.0901 9.26944 26.8812 9.26372 18.1058 18.032L49.8683 49.8309C58.6266 41.0483 58.6209 26.8203 49.854 18.0463H49.8569Z" fill="#EEE4EF"/>
<path id="Vector_3" d="M51.153 16.6399C60.6838 26.1816 60.6895 41.6471 51.1673 51.1945C60.6895 41.6471 60.6838 26.1787 51.153 16.6371V16.6399Z" fill="#70A1D5"/>
<path id="Vector_4" d="M60.8956 54.4088C70.9814 41.1146 69.9714 22.0742 57.8512 9.93727C44.6238 -3.30535 23.176 -3.30821 9.94279 9.92295C9.93707 9.92868 9.93135 9.93155 9.92562 9.93727C-3.30756 23.1856 -3.30756 44.6666 9.92562 57.9178C22.0916 70.0977 41.2017 71.0716 54.4893 60.8568L62.0172 68.3933C62.4435 67.259 63.1016 66.1962 64.0115 65.2853L64.6266 64.6694L65.3362 63.959C66.2432 63.0481 67.3076 62.3893 68.4406 61.9625L60.8984 54.4116L60.8956 54.4088ZM51.1674 51.1977C51.1674 51.1977 51.1588 51.2091 51.1531 51.212C44.598 57.7746 35.2418 59.8256 26.9356 57.3649C26.558 57.2532 26.1831 57.1329 25.8112 57.0012C24.6924 56.6087 23.5966 56.1332 22.5351 55.5746C20.4092 54.4575 18.412 53.0023 16.6238 51.212C14.8355 49.4217 13.382 47.4222 12.2661 45.2939C11.7082 44.2283 11.2332 43.1312 10.8412 42.014C10.7096 41.6417 10.5894 41.2664 10.4778 40.8883C8.01718 32.5726 10.0658 23.2057 16.6238 16.6431C16.6238 16.6431 16.6352 16.6345 16.6381 16.6288C26.1746 7.09568 41.6252 7.10141 51.1559 16.6431C60.6867 26.1848 60.6896 41.6503 51.1703 51.2005L51.1674 51.1977Z" fill="#92DDB6"/>
<path id="Vector_5" d="M60.8955 54.4085C70.9814 41.1143 69.9714 22.074 57.8512 9.93703C44.6237 -3.30559 23.1759 -3.30846 9.94275 9.92271L16.638 16.6257C26.1745 7.09257 41.6252 7.0983 51.1559 16.64C60.6867 26.1817 60.6895 41.6471 51.1702 51.1974L55.0615 55.0931L56.5551 56.5856L64.6266 64.6663L65.3362 63.9559C66.2432 63.045 67.3076 62.3862 68.4406 61.9594L60.8984 54.4085H60.8955Z" fill="#009770"/>
<path id="Vector_6" d="M52.9614 14.8983C42.4464 4.3712 25.3963 4.36547 14.8756 14.8839C14.8698 14.8897 14.867 14.8925 14.8613 14.8983C4.34052 25.4311 4.34052 42.5093 14.8613 53.0421C25.382 63.5749 42.4407 63.5749 52.9643 53.0421C52.97 53.0363 52.9729 53.0335 52.9786 53.0277C63.485 42.4949 63.4821 25.4253 52.9643 14.8983H52.9614ZM49.7769 49.8252C49.7769 49.8252 49.7683 49.8338 49.7625 49.8395C43.7425 55.8665 35.1531 57.7485 27.5279 55.4884C27.1817 55.3852 26.8355 55.2735 26.495 55.1532C25.4678 54.7923 24.4607 54.3569 23.4879 53.8441C21.5365 52.8158 19.7025 51.4809 18.0601 49.8367C16.4206 48.1953 15.0844 46.3592 14.0601 44.4056C13.548 43.4288 13.1102 42.4205 12.7525 41.395C12.6324 41.0512 12.5208 40.7075 12.4178 40.3609C10.1603 32.727 12.0401 24.1277 18.0601 18.1008C18.0601 18.1008 18.0687 18.0922 18.0744 18.0865C26.8298 9.33539 41.0129 9.34112 49.7625 18.1008C58.5122 26.8605 58.5179 41.0627 49.7769 49.8281V49.8252Z" fill="#00795E" fill-opacity="0.8"/>
<path id="Vector_7" d="M49.7625 18.0979C58.5121 26.8576 58.5178 41.0598 49.7768 49.8252L52.9756 53.0277C63.4821 42.4949 63.4792 25.4253 52.9613 14.8983C42.4463 4.3712 25.3962 4.36547 14.8755 14.8839L18.0743 18.0865C26.8297 9.33539 41.0128 9.34112 49.7625 18.1008V18.0979Z" fill="#00795E"/>
<path id="Vector_8" d="M78.0057 64.0762C77.8999 63.9702 77.7883 63.8786 77.6795 63.7812L77.6939 63.7668C75.1044 61.4094 71.505 60.8049 68.4406 61.9593C67.3076 62.3862 66.2461 63.045 65.3362 63.9559L64.6266 64.6663L64.0115 65.2822C63.1016 66.1902 62.4435 67.2558 62.0172 68.3902C60.8641 71.4609 61.465 75.0616 63.8226 77.6568L63.8369 77.6425C63.9371 77.7514 64.0286 77.8631 64.1316 77.9691L96.1259 110.003L103.016 103.105L110 96.1129L78.0057 64.0791V64.0762Z" fill="#3E4D75"/>
<path id="Vector_9" d="M78.0057 64.0762C77.8998 63.9702 77.7882 63.8786 77.6795 63.7812L77.6938 63.7668C75.1044 61.4094 71.505 60.8049 68.4406 61.9593C67.3076 62.3862 66.246 63.045 65.3362 63.9559L64.6266 64.6663L70.7096 70.7591L71.0157 71.0656L103.019 103.105L110.003 96.1129L78.0086 64.0791L78.0057 64.0762Z" fill="#353859"/>
</g>
<defs>
<clipPath id="clip0_786_428">
<rect width="110" height="110" fill="white"/>
</clipPath>
</defs>
</svg>
