<svg width="162" height="11" viewBox="0 0 162 11" fill="none" xmlns="http://www.w3.org/2000/svg">
<g id="&#227;&#129;&#147;&#227;&#129;&#174;RPA&#229;&#176;&#142;&#229;&#133;&#165;&#229;&#163;&#171;&#227;&#129;&#171;&#231;&#132;&#161;&#230;&#150;&#153;&#231;&#155;&#184;&#232;&#171;&#135;&#227;&#129;&#153;&#227;&#130;&#139;">
<path d="M0.628048 5.94946C0.936147 6.10323 1.2324 6.25699 1.5405 6.42258C1.64714 6.48172 1.65899 6.54086 1.59975 6.63548C1.422 6.90753 1.29165 7.29785 1.29165 7.53441C1.29165 8.27957 2.06189 8.64624 4.10009 8.64624C5.24953 8.64624 6.33973 8.51613 7.31143 8.30323C7.47733 8.26774 7.53658 8.30323 7.56028 8.40968C7.61953 8.63441 7.72618 9.27312 7.74988 9.56882C7.76173 9.67527 7.69063 9.72258 7.54843 9.74624C6.44638 9.94731 5.52208 10.0301 4.01714 10.0301C1.36275 10.0301 0 9.17849 0 7.64086C0 7.15591 0.177749 6.64731 0.628048 5.94946ZM0.888747 1.47849C1.78934 1.6914 2.92694 1.78602 4.21859 1.78602C5.08363 1.78602 5.97238 1.72688 6.73078 1.67957C6.84928 1.66774 6.89668 1.71505 6.90853 1.80968C6.94408 2.08172 6.96778 2.4129 6.96778 2.81505C6.96778 2.98064 6.90853 3.05161 6.76633 3.06344C5.64058 3.22903 4.82294 3.61935 3.86309 4.23441C3.76829 4.30538 3.66164 4.34086 3.56684 4.34086C3.48389 4.34086 3.40094 4.3172 3.31799 4.26989C3.08099 4.11613 2.83214 3.98602 2.48849 3.8914C3.10469 3.48925 3.62609 3.15806 4.04084 2.90968C3.78014 2.94516 3.41279 2.94516 3.06914 2.94516C2.61884 2.94516 1.65899 2.86237 0.995397 2.74409C0.888747 2.72043 0.841348 2.67312 0.841348 2.53118C0.841348 2.24731 0.865047 1.9043 0.888747 1.47849Z" fill="#009770"/>
<path d="M16.4833 2.80323H16.4359C16.1633 4.81398 15.6656 6.65914 14.9547 7.90107C14.4451 8.78817 13.8289 9.26129 12.9402 9.26129C11.8974 9.26129 10.8427 8.14946 10.8427 6.22151C10.8427 5.08602 11.3286 3.99785 12.1818 3.14624C13.1772 2.15269 14.4333 1.63226 16.033 1.63226C18.877 1.63226 20.5478 3.3828 20.5478 5.73656C20.5478 7.93656 19.3036 9.32043 16.898 10.0419C16.6492 10.1129 16.5425 10.0656 16.3885 9.82903C16.2581 9.62796 16.0093 9.35591 15.559 9.08387C17.5616 8.61075 19.1377 7.7828 19.1377 5.54731C19.1377 4.13979 18.0712 2.80323 16.4833 2.80323ZM15.0613 2.87419C14.2318 3.03978 13.5682 3.37097 13.035 3.95054C12.4662 4.58925 12.1107 5.38172 12.1107 6.13871C12.1107 7.22688 12.5491 7.83011 12.9165 7.83011C13.2246 7.83011 13.4853 7.67634 13.8052 7.1086C14.3266 6.15054 14.8599 4.44731 15.0613 2.87419Z" fill="#009770"/>
<path d="M22.7045 0.898924H26.0107C28.2503 0.898924 29.2694 1.79785 29.2694 3.39462C29.2694 4.53011 28.6295 5.36989 27.4445 5.72473L29.5657 10.0774H27.8474L25.987 5.96129C25.8566 5.96129 25.7263 5.97312 25.5722 5.97312H24.2687V10.0774H22.7045V0.898924ZM24.2687 2.09355V4.79032H25.8685C27.1246 4.79032 27.6697 4.26989 27.6697 3.41828C27.6697 2.60215 27.2075 2.09355 25.9396 2.09355H24.2687Z" fill="#009770"/>
<path d="M30.9902 0.898924H34.2371C36.5005 0.898924 37.5196 1.83333 37.5196 3.52473C37.5196 5.21613 36.3464 6.22151 34.1423 6.22151H32.59V10.0774H30.9902V0.898924ZM32.59 2.09355V5.02688H34.0949C35.3155 5.02688 35.908 4.47097 35.908 3.53656C35.908 2.62581 35.3747 2.09355 34.1542 2.09355H32.59Z" fill="#009770"/>
<path d="M42.7123 0.898924L45.5444 10.0774H43.8736L43.0915 7.38064H40.2712L39.4772 10.0774H37.9604L40.7807 0.898924H42.7123ZM42.8071 6.19785L42.2738 4.34086C42.0724 3.61935 41.9302 2.94516 41.7287 2.08172H41.6221C41.4206 2.95699 41.2547 3.61935 41.0533 4.32903L40.5556 6.19785H42.8071Z" fill="#009770"/>
<path d="M55.339 8.91828H54.5687C54.5687 9.27312 54.5924 9.56882 54.5924 9.91183C54.5924 10.3613 54.4384 10.6215 54.154 10.7753C53.8933 10.9054 53.5496 10.9882 52.5779 10.9882C52.2224 10.9882 52.2224 10.9882 52.1395 10.7043C52.0447 10.3731 51.9262 10.0892 51.8077 9.92366C52.2343 9.95914 52.649 9.97097 52.886 9.97097C53.2297 9.97097 53.3837 9.86452 53.3837 9.59247V8.91828H48.1934C47.1269 8.91828 46.7714 8.94194 46.7003 8.94194C46.5937 8.94194 46.5818 8.93011 46.5818 8.81183V8.09032C46.5818 7.96022 46.5937 7.94839 46.7003 7.94839C46.7714 7.94839 47.1269 7.97204 48.1934 7.97204H53.3837V7.49892H52.5542C51.2981 7.49892 50.2909 7.35699 49.7813 7.1914C49.2599 7.01398 48.9518 6.75376 48.6556 6.36344C48.3001 6.67097 47.8735 6.97849 47.435 7.25054C47.3284 7.32151 47.2573 7.39247 47.198 7.47527C47.1506 7.54624 47.1032 7.58172 47.0321 7.58172C46.961 7.58172 46.9136 7.54624 46.8544 7.43978C46.7003 7.12043 46.5818 6.83656 46.4159 6.42258C46.6648 6.35161 46.9136 6.24516 47.0914 6.16237C47.4587 5.98495 47.8616 5.74839 48.1816 5.48817V4.24624H47.5535C46.9255 4.24624 46.7714 4.26989 46.6885 4.26989C46.5818 4.26989 46.57 4.25806 46.57 4.13979V3.33548C46.57 3.2172 46.5818 3.20538 46.6885 3.20538C46.7714 3.20538 46.9255 3.22903 47.5535 3.22903H48.3238C48.9518 3.22903 49.1177 3.20538 49.1888 3.20538C49.3192 3.20538 49.331 3.2172 49.331 3.33548C49.331 3.40645 49.3073 3.63118 49.3073 4.15161V5.55914C49.5325 5.94946 49.7576 6.18602 50.2079 6.35161C50.5634 6.46989 51.2626 6.52903 52.3883 6.52903C54.0592 6.52903 55.7182 6.49355 57.3416 6.37527C57.2468 6.57634 57.1757 6.83656 57.1401 7.04946C57.069 7.42796 57.069 7.42796 56.6898 7.43978C55.9552 7.46344 55.2442 7.47527 54.5687 7.4871V7.97204H55.339C56.4054 7.97204 56.7728 7.94839 56.8439 7.94839C56.9624 7.94839 56.9742 7.96022 56.9742 8.09032V8.81183C56.9742 8.93011 56.9624 8.94194 56.8439 8.94194C56.7728 8.94194 56.4054 8.91828 55.339 8.91828ZM52.495 1.97527H51.3455C50.1961 1.97527 49.805 1.99892 49.7339 1.99892C49.6154 1.99892 49.6036 1.99892 49.6036 1.88064V1.28925C49.6036 1.17097 49.6154 1.15914 49.7339 1.15914C49.805 1.15914 50.1961 1.1828 51.3455 1.1828C51.2507 0.98172 51.0967 0.756989 50.9071 0.532258C50.8241 0.425807 50.8715 0.40215 51.0137 0.343011L51.6536 0.0827953C51.7721 0.0354834 51.8077 0.0473119 51.9025 0.141935C52.0921 0.343011 52.258 0.544086 52.4002 0.780645C52.4594 0.887097 52.4476 0.934409 52.3172 0.993548L51.8788 1.1828H53.7037C53.8222 1.00538 53.9288 0.839785 54.0236 0.662366C54.1184 0.496774 54.1895 0.319355 54.2369 0.0946231C54.628 0.153764 55.0072 0.236559 55.3153 0.307526C55.4101 0.331183 55.4693 0.366666 55.4693 0.425807C55.4693 0.508602 55.41 0.567742 55.339 0.615054C55.256 0.674193 55.1849 0.768817 55.1257 0.851613L54.9005 1.1828H55.1494C56.3106 1.1828 56.7135 1.15914 56.7846 1.15914C56.9031 1.15914 56.915 1.17097 56.915 1.28925V1.86882C56.915 1.9871 56.9031 1.99892 56.7846 1.99892C56.7135 1.99892 56.3106 1.97527 55.1494 1.97527H53.7037C53.6444 2.14086 53.5852 2.2828 53.5259 2.40108H54.4028C55.4456 2.40108 55.813 2.37742 55.8959 2.37742C56.0025 2.37742 56.0144 2.38925 56.0144 2.50753C56.0144 2.57849 55.9907 2.83871 55.9907 3.48925V4.93226C55.9907 5.5828 56.0144 5.85484 56.0144 5.92581C56.0144 6.04409 56.0025 6.05591 55.8959 6.05591C55.813 6.05591 55.4456 6.03226 54.4028 6.03226H51.9499C50.9071 6.03226 50.5397 6.05591 50.4568 6.05591C50.3383 6.05591 50.3264 6.04409 50.3264 5.92581C50.3264 5.84301 50.3501 5.5828 50.3501 4.93226V3.48925C50.3501 2.83871 50.3264 2.57849 50.3264 2.50753C50.3264 2.38925 50.3383 2.37742 50.4568 2.37742C50.5397 2.37742 50.9071 2.40108 51.9499 2.40108H52.3409C52.4002 2.25914 52.4594 2.12903 52.495 1.97527ZM54.8887 3.03978H51.4403V3.47742H54.8887V3.03978ZM54.8887 5.38172V4.94409H51.4403V5.38172H54.8887ZM51.4403 4.42366H54.8887V3.99785H51.4403V4.42366ZM46.9847 1.00538L47.5417 0.52043C47.6365 0.437634 47.6839 0.413978 47.7787 0.484946C48.2645 0.851613 48.7622 1.3129 49.1888 1.82151C49.2244 1.86882 49.2481 1.9043 49.2481 1.93978C49.2481 1.9871 49.2244 2.02258 49.1651 2.08172L48.5252 2.63763C48.4541 2.69677 48.4067 2.73226 48.3712 2.73226C48.3475 2.73226 48.3119 2.69677 48.2764 2.64946C47.8379 2.06989 47.4113 1.59677 46.961 1.23011C46.9136 1.19462 46.8781 1.15914 46.8781 1.13548C46.8781 1.1 46.9136 1.06452 46.9847 1.00538ZM48.9637 9.3914L49.7339 9.0129C49.8761 8.94194 49.8998 8.94194 50.0065 9.02473C50.3738 9.34409 50.7293 9.69893 51.0374 10.1011C51.1085 10.1957 51.0967 10.2312 50.9663 10.3021L50.1487 10.7753C50.0183 10.8462 49.9828 10.8581 49.9117 10.7516C49.6391 10.3495 49.2836 9.91183 48.9163 9.59247C48.8689 9.54516 48.8452 9.52151 48.8452 9.49785C48.8452 9.46237 48.8807 9.42688 48.9637 9.3914Z" fill="#009770"/>
<path d="M61.5009 0.827957H63.0177C63.8709 0.827957 64.1316 0.804301 64.2027 0.804301C64.3094 0.804301 64.3568 0.827957 64.3568 0.946236C64.3331 1.37204 64.3568 1.6914 64.4279 2.25914C64.7952 5.45269 66.2528 7.88925 69.0375 9.56882C68.8242 9.76989 68.5517 10.0656 68.3384 10.4677C68.2436 10.657 68.1962 10.7398 68.1251 10.7398C68.0658 10.7398 67.9829 10.6806 67.8525 10.586C65.6958 9.00108 64.3805 7.07312 63.788 4.71936C63.1481 7.14409 61.572 9.28495 59.4272 10.6097C59.285 10.6925 59.2139 10.7516 59.1546 10.7516C59.0717 10.7516 59.0243 10.657 58.9058 10.4677C58.7162 10.1484 58.4436 9.86452 58.2066 9.6871C61.1454 8.24409 62.8163 5.4172 62.9703 2.03441H61.5009C60.6477 2.03441 60.387 2.05806 60.3159 2.05806C60.1856 2.05806 60.1737 2.04624 60.1737 1.92796V0.934409C60.1737 0.816129 60.1856 0.804301 60.3159 0.804301C60.387 0.804301 60.6477 0.827957 61.5009 0.827957Z" fill="#009770"/>
<path d="M78.2686 10.3258H72.6162C71.4668 10.3258 71.0875 10.3495 71.0164 10.3495C70.8979 10.3495 70.8861 10.3376 70.8861 10.2194V9.23763C70.8861 9.11936 70.8979 9.10753 71.0164 9.10753C71.0875 9.10753 71.4668 9.13118 72.6162 9.13118H74.7255V5.15699H71.8815C70.815 5.15699 70.4477 5.18065 70.3766 5.18065C70.2581 5.18065 70.2462 5.16882 70.2462 5.05054V4.08065C70.2462 3.95054 70.2581 3.93871 70.3766 3.93871C70.4477 3.93871 70.815 3.96237 71.8815 3.96237H74.7255V1.79785C74.7255 1.06452 74.7136 0.756989 74.6307 0.354838C75.0691 0.366666 75.5787 0.390323 75.9816 0.437634C76.0882 0.449462 76.1593 0.496774 76.1593 0.567742C76.1593 0.650538 76.1356 0.721505 76.1001 0.804301C76.0408 0.958064 76.029 1.1828 76.029 1.72688V3.96237H79.027C80.0935 3.96237 80.4609 3.93871 80.532 3.93871C80.6505 3.93871 80.6623 3.95054 80.6623 4.08065V5.05054C80.6623 5.16882 80.6505 5.18065 80.532 5.18065C80.4609 5.18065 80.0935 5.15699 79.027 5.15699H76.029V9.13118H78.2686C79.4062 9.13118 79.7973 9.10753 79.8684 9.10753C79.9869 9.10753 79.9987 9.11936 79.9987 9.23763V10.2194C79.9987 10.3376 79.9869 10.3495 79.8684 10.3495C79.7973 10.3495 79.4062 10.3258 78.2686 10.3258Z" fill="#009770"/>
<path d="M83.5419 1.04086C84.0751 1.17097 84.4543 1.28925 84.8098 1.47849C85.0113 1.58495 85.0824 1.65591 85.0824 1.76237C85.0824 1.84516 85.0587 1.88065 84.9046 2.1172C84.7861 2.33011 84.7269 2.4957 84.6202 2.95699C84.2884 4.42366 84.1225 5.87849 84.1225 6.77742C84.1225 7.35699 84.1462 7.74731 84.1936 8.16129C84.4425 7.6172 84.6558 7.22688 84.9994 6.39892C85.0942 6.69462 85.2483 6.88387 85.4142 7.14409C85.4497 7.20323 85.4971 7.27419 85.4971 7.32151C85.4971 7.4043 85.4734 7.45161 85.4379 7.51075C85.1653 8.12581 84.9402 8.63441 84.7624 9.29677C84.7387 9.36774 84.7269 9.49785 84.7269 9.66344C84.7269 9.80538 84.7506 9.9 84.7506 9.99462C84.7506 10.0774 84.7032 10.1247 84.5965 10.1484C84.3003 10.2312 83.9685 10.3022 83.6248 10.3376C83.5419 10.3495 83.4945 10.2903 83.4708 10.2075C83.139 9.37957 82.9257 7.87742 82.9257 6.6828C82.9257 5.61828 83.056 4.32903 83.3286 2.80323C83.4826 1.92796 83.5419 1.53763 83.5419 1.04086ZM86.2673 7.14409L87.3457 7.04946C87.4405 7.03763 87.4642 7.09677 87.4642 7.22688C87.5353 8.04301 88.1041 8.33871 89.3957 8.33871C90.2845 8.33871 90.8651 8.27957 91.6591 8.18495C91.7776 8.17312 91.8013 8.18495 91.825 8.33871C91.8605 8.5871 91.8961 9.04839 91.8961 9.35591C91.8961 9.49785 91.8961 9.50968 91.6946 9.53333C90.8888 9.62796 90.32 9.66344 89.7631 9.66344C88.0093 9.66344 87.1917 9.37957 86.6821 8.68172C86.3859 8.30323 86.2673 7.7 86.2673 7.14409ZM86.6466 3.78495C86.6584 3.12258 86.6584 2.82688 86.6821 2.62581C86.694 2.48387 86.7295 2.44839 86.848 2.42473C87.5471 2.29462 88.8743 2.21183 89.4194 2.21183C90.1304 2.21183 90.6755 2.23548 91.1732 2.2828C91.4221 2.29462 91.4458 2.31828 91.4458 2.43656C91.4458 2.7914 91.4458 3.11075 91.4221 3.44194C91.4102 3.54839 91.3747 3.5957 91.268 3.58387C90.557 3.53656 89.9408 3.5129 89.3365 3.5129C88.5425 3.5129 87.7723 3.58387 86.6466 3.78495Z" fill="#009770"/>
<path d="M102.383 7.84194H96.0436C94.9415 7.84194 94.5505 7.86559 94.4794 7.86559C94.3609 7.86559 94.349 7.85376 94.349 7.73548V6.90753C94.349 6.78925 94.3609 6.77742 94.4794 6.77742C94.5386 6.77742 94.8704 6.80108 95.7236 6.80108V5.2043H95.38C94.349 5.2043 93.9935 5.22796 93.9224 5.22796C93.8158 5.22796 93.8039 5.21613 93.8039 5.09785V4.23441C93.8039 4.11613 93.8158 4.1043 93.9224 4.1043C93.9935 4.1043 94.349 4.12796 95.38 4.12796H95.7236V2.94516C95.534 3.14624 95.3326 3.33548 95.1311 3.5129C94.9889 3.61935 94.9178 3.66667 94.8586 3.66667C94.7875 3.66667 94.7282 3.5957 94.5979 3.43011C94.4201 3.20538 94.2542 3.03978 94.0646 2.90968C95.0126 2.27097 95.6762 1.47849 96.1265 0.709677C96.2687 0.437634 96.3517 0.236559 96.4228 0C96.7664 0.0709675 97.1338 0.177419 97.4419 0.295699C97.5367 0.331183 97.6078 0.390323 97.6078 0.449462C97.6078 0.508602 97.5722 0.567742 97.5011 0.615054C97.4063 0.686021 97.3352 0.780645 97.2286 0.958064C97.1101 1.14731 96.9797 1.34839 96.8375 1.54946H102.217C103.367 1.54946 103.77 1.52581 103.841 1.52581C103.971 1.52581 103.983 1.53763 103.983 1.65591V2.50753C103.983 2.61398 103.971 2.62581 103.841 2.62581C103.782 2.62581 103.497 2.61398 102.762 2.60215V4.12796H102.952C103.983 4.12796 104.339 4.1043 104.41 4.1043C104.516 4.1043 104.528 4.11613 104.528 4.23441V5.09785C104.528 5.21613 104.516 5.22796 104.41 5.22796C104.339 5.22796 103.983 5.2043 102.952 5.2043H102.762V6.80108C103.568 6.80108 103.888 6.77742 103.947 6.77742C104.066 6.77742 104.078 6.78925 104.078 6.90753V7.73548C104.078 7.85376 104.066 7.86559 103.947 7.86559C103.876 7.86559 103.497 7.84194 102.383 7.84194ZM100.724 6.80108H101.672V5.2043H100.724V6.80108ZM98.7572 6.80108H99.6934V5.2043H98.7572V6.80108ZM96.8138 6.80108H97.7263V5.2043H96.8138V6.80108ZM100.724 4.12796H101.672V2.60215H100.724V4.12796ZM98.7572 4.12796H99.6934V2.60215H98.7572V4.12796ZM96.8138 4.12796H97.7263V2.60215H96.8138V4.12796ZM94.7519 10.7634L94.0765 10.3021C93.9935 10.2548 93.958 10.2075 93.958 10.172C93.958 10.1366 93.9817 10.1129 94.0291 10.0656C94.5979 9.53333 95.0482 8.93011 95.3681 8.24409C95.4155 8.12581 95.4392 8.12581 95.6051 8.19677L96.2924 8.48065C96.4465 8.55161 96.4465 8.57527 96.3991 8.69355C96.0436 9.47419 95.5459 10.1839 95.0008 10.7634C94.9652 10.8108 94.9297 10.8344 94.8941 10.8344C94.8586 10.8344 94.823 10.8108 94.7519 10.7634ZM102.063 8.49247L102.715 8.17312C102.857 8.10215 102.893 8.11398 102.976 8.2086C103.473 8.78817 103.9 9.3914 104.256 10.0774C104.315 10.1839 104.303 10.2075 104.149 10.2903L103.402 10.7043C103.26 10.7753 103.225 10.7634 103.165 10.657C102.822 9.93548 102.454 9.32043 101.969 8.68172C101.897 8.5871 101.909 8.56344 102.063 8.49247ZM99.7289 8.52796L100.464 8.37419C100.618 8.35054 100.641 8.36237 100.689 8.46882C100.961 9.08387 101.151 9.72258 101.293 10.3495C101.317 10.4796 101.305 10.5032 101.151 10.5387L100.31 10.7043C100.132 10.7398 100.108 10.7398 100.084 10.6097C99.9659 9.94731 99.8119 9.28495 99.5867 8.70538C99.5393 8.5871 99.563 8.56344 99.7289 8.52796ZM97.3945 8.5043L98.1529 8.43333C98.2951 8.4215 98.3306 8.42151 98.3543 8.55161C98.5084 9.16667 98.5795 9.82903 98.6269 10.5151C98.6387 10.6333 98.615 10.6688 98.4728 10.6806L97.6196 10.7516C97.43 10.7753 97.4182 10.7516 97.4182 10.6333C97.4063 9.95914 97.3471 9.28495 97.2167 8.68172C97.193 8.53979 97.2167 8.51613 97.3945 8.5043Z" fill="#009770"/>
<path d="M107.739 4.00968V1.80968C107.739 1.05269 107.716 0.674193 107.645 0.141935C108.083 0.153764 108.439 0.177419 108.842 0.224731C108.96 0.236559 109.031 0.295699 109.031 0.343011C109.031 0.449462 108.996 0.508602 108.96 0.591398C108.889 0.733333 108.877 0.98172 108.877 1.78602V4.00968H108.972C109.884 4.00968 110.181 3.98602 110.252 3.98602C110.37 3.98602 110.382 3.99785 110.382 4.11613V4.95591C110.382 5.06237 110.37 5.07419 110.252 5.07419C110.181 5.07419 109.896 5.05054 109.043 5.05054C109.541 5.86667 110.003 6.44624 110.643 7.09677C110.465 7.30968 110.299 7.59355 110.169 7.87742C110.098 8.01935 110.05 8.09032 110.003 8.09032C109.955 8.09032 109.896 8.03118 109.813 7.9129C109.47 7.41613 109.138 6.87204 108.853 6.22151C108.853 8.56344 108.936 10.6806 108.936 10.8581C108.936 10.9763 108.924 10.9882 108.794 10.9882H107.822C107.704 10.9882 107.692 10.9763 107.692 10.8581C107.692 10.6806 107.751 8.72903 107.775 6.5172C107.42 7.47527 106.946 8.38602 106.341 9.21398C106.246 9.33226 106.187 9.40323 106.128 9.40323C106.08 9.40323 106.033 9.34409 105.986 9.20215C105.879 8.87097 105.701 8.5043 105.559 8.33871C106.412 7.35699 107.028 6.29247 107.467 5.05054H107.254C106.329 5.05054 106.033 5.07419 105.962 5.07419C105.843 5.07419 105.832 5.06237 105.832 4.95591V4.11613C105.832 3.99785 105.843 3.98602 105.962 3.98602C106.033 3.98602 106.329 4.00968 107.254 4.00968H107.739ZM112.136 7.1086L113.949 6.75376V2.02258C113.949 1.1828 113.937 0.816129 113.854 0.224731C114.304 0.236559 114.695 0.260215 115.11 0.307526C115.217 0.319355 115.288 0.366666 115.288 0.437634C115.288 0.52043 115.252 0.579569 115.217 0.674193C115.158 0.816129 115.146 1.11183 115.146 1.9871V6.5172C115.833 6.37527 116.106 6.29247 116.212 6.26882C116.319 6.24516 116.319 6.25699 116.343 6.3871L116.485 7.30968C116.497 7.41613 116.497 7.42796 116.366 7.45161C116.283 7.47527 115.963 7.52258 115.146 7.68817V8.78817C115.146 10.1011 115.169 10.7753 115.169 10.8344C115.169 10.9527 115.158 10.9645 115.039 10.9645H114.056C113.937 10.9645 113.925 10.9527 113.925 10.8344C113.925 10.7634 113.949 10.1129 113.949 8.8V7.92473L112.325 8.24409C111.294 8.44516 110.915 8.52796 110.797 8.55161C110.678 8.57527 110.655 8.56344 110.643 8.45699L110.489 7.52258C110.465 7.39247 110.477 7.39247 110.595 7.36882C110.714 7.34516 111.105 7.30968 112.136 7.1086ZM110.797 4.25806L111.342 3.73763C111.401 3.67849 111.425 3.65484 111.449 3.65484C111.484 3.65484 111.508 3.67849 111.567 3.72581C112.112 4.1043 112.728 4.66021 113.202 5.23979C113.285 5.34624 113.285 5.36989 113.167 5.48817L112.586 6.06774C112.456 6.18602 112.432 6.18602 112.349 6.0914C111.863 5.47634 111.33 4.92043 110.785 4.4828C110.738 4.43548 110.702 4.41183 110.702 4.38817C110.702 4.35269 110.738 4.3172 110.797 4.25806ZM111.14 1.53763L111.662 1.04086C111.768 0.946236 111.78 0.922581 111.887 0.993548C112.479 1.40753 113.084 1.91613 113.558 2.4957C113.629 2.57849 113.629 2.62581 113.522 2.72043L112.953 3.27634C112.823 3.40645 112.799 3.41828 112.728 3.31183C112.242 2.69677 111.638 2.14086 111.117 1.76237C111.034 1.70323 111.022 1.64409 111.14 1.53763ZM109.102 3.18172C109.351 2.56667 109.541 1.9043 109.647 1.3957C109.671 1.27742 109.707 1.06452 109.718 0.887097C110.038 0.993548 110.406 1.11183 110.619 1.21828C110.714 1.26559 110.749 1.30108 110.749 1.36022C110.749 1.41935 110.726 1.45484 110.678 1.47849C110.607 1.52581 110.572 1.6086 110.536 1.73871C110.394 2.22366 110.216 2.69677 109.991 3.24086C109.92 3.41828 109.884 3.48925 109.813 3.48925C109.766 3.48925 109.695 3.45376 109.576 3.3828C109.398 3.28817 109.209 3.2172 109.102 3.18172ZM106.104 1.20645L106.602 1.00538C106.744 0.946236 106.756 0.958064 106.815 1.07634C107.123 1.77419 107.313 2.37742 107.455 3.06344C107.479 3.18172 107.455 3.2172 107.301 3.27634L106.791 3.46559C106.614 3.53656 106.602 3.52473 106.578 3.39462C106.448 2.68495 106.246 2.04624 105.974 1.41935C105.926 1.28925 105.95 1.26559 106.104 1.20645Z" fill="#009770"/>
<path d="M123.381 10.929H122.422C122.303 10.929 122.291 10.9172 122.291 10.8108C122.291 10.7398 122.315 9.95914 122.315 6.33979V4.00968C122.315 1.66774 122.291 0.887097 122.291 0.804301C122.291 0.686021 122.303 0.674193 122.422 0.674193C122.505 0.674193 122.86 0.69785 123.879 0.69785H126.154C127.173 0.69785 127.529 0.674193 127.6 0.674193C127.719 0.674193 127.73 0.686021 127.73 0.804301C127.73 0.875269 127.707 1.66774 127.707 3.61935V6.32796C127.707 9.92366 127.73 10.7043 127.73 10.7753C127.73 10.8817 127.719 10.8935 127.6 10.8935H126.628C126.522 10.8935 126.51 10.8817 126.51 10.7753V10.2312H123.524V10.8108C123.524 10.9172 123.512 10.929 123.381 10.929ZM123.524 9.0957H126.51V7.38064H123.524V9.0957ZM123.524 1.83333V3.5129H126.51V1.83333H123.524ZM123.524 6.26882H126.51V4.62473H123.524V6.26882ZM120.3 10.9882H119.341C119.222 10.9882 119.21 10.9763 119.21 10.8581C119.21 10.6452 119.269 8.30323 119.293 5.48817C118.985 6.43441 118.535 7.34516 117.954 8.19677C117.871 8.31505 117.812 8.37419 117.765 8.37419C117.717 8.37419 117.682 8.31505 117.646 8.18495C117.539 7.80645 117.385 7.43978 117.219 7.17957C118.049 6.20968 118.701 5.01505 119.151 3.58387H118.878C118.013 3.58387 117.729 3.60753 117.658 3.60753C117.539 3.60753 117.528 3.5957 117.528 3.47742V2.61398C117.528 2.4957 117.539 2.48387 117.658 2.48387C117.729 2.48387 118.013 2.50753 118.878 2.50753H119.258V1.77419C119.258 1.04086 119.246 0.662366 119.163 0.165591C119.589 0.177419 119.969 0.201075 120.348 0.248387C120.466 0.260215 120.537 0.307526 120.537 0.366666C120.537 0.473118 120.502 0.532258 120.466 0.615054C120.407 0.756989 120.383 0.946236 120.383 1.76237V2.50753C121.26 2.50753 121.545 2.48387 121.616 2.48387C121.734 2.48387 121.746 2.4957 121.746 2.61398V3.47742C121.746 3.5957 121.734 3.60753 121.616 3.60753C121.545 3.60753 121.272 3.58387 120.454 3.58387C120.798 4.38817 121.414 5.18064 122.019 5.84301C121.853 6.0914 121.711 6.3871 121.568 6.75376C121.509 6.88387 121.474 6.94301 121.438 6.94301C121.391 6.94301 121.343 6.88387 121.272 6.77742C120.893 6.23333 120.573 5.65376 120.348 5.01505C120.36 8.14946 120.431 10.6452 120.431 10.8581C120.431 10.9763 120.419 10.9882 120.3 10.9882Z" fill="#009770"/>
<path d="M133.075 8.13763V9.93548C135.125 9.34409 135.836 8.04301 135.966 6.13871C136.002 5.72473 136.002 5.40538 135.954 5.01505C136.369 5.03871 136.748 5.06237 137.092 5.13333C137.234 5.15699 137.317 5.2043 137.317 5.2871C137.317 5.36989 137.305 5.4172 137.246 5.5C137.187 5.5828 137.163 5.70108 137.116 6.20968C137.447 8.16129 138.763 9.32043 140.232 9.84086C140.066 10.0538 139.877 10.3731 139.746 10.6688C139.651 10.8699 139.616 10.9645 139.521 10.9645C139.462 10.9645 139.391 10.929 139.249 10.8581C138.135 10.2667 137.234 9.37957 136.724 8.11398C136.298 9.3086 135.528 10.2548 134.129 10.8817C133.999 10.929 133.928 10.9645 133.857 10.9645C133.762 10.9645 133.715 10.8817 133.608 10.6688C133.454 10.3968 133.288 10.1366 133.075 9.94731C133.087 10.4559 133.098 10.6097 133.098 10.657C133.098 10.7753 133.087 10.7871 132.98 10.7871H132.127C132.008 10.7871 131.996 10.7753 131.996 10.657V10.3376H130.894V10.8817C130.894 10.9882 130.882 11 130.764 11H129.911C129.792 11 129.78 10.9882 129.78 10.8817C129.78 10.7989 129.804 10.5269 129.804 9.0957V8.33871C129.804 7.59355 129.78 7.30968 129.78 7.22688C129.78 7.1086 129.792 7.09677 129.911 7.09677C129.982 7.09677 130.231 7.12043 130.989 7.12043H131.89C132.648 7.12043 132.897 7.09677 132.98 7.09677C133.087 7.09677 133.098 7.1086 133.098 7.22688C133.098 7.29785 133.075 7.58172 133.075 8.13763ZM131.996 8.10215H130.894V9.36774H131.996V8.10215ZM140.185 4.55376C140.031 4.73118 139.853 5.03871 139.734 5.29892C139.628 5.52366 139.604 5.60645 139.497 5.60645C139.45 5.60645 139.367 5.5828 139.237 5.53548C138.17 5.12151 137.222 4.34086 136.713 3.12258C136.286 4.19892 135.516 5.02688 134.2 5.54731C134.07 5.59462 133.999 5.63011 133.94 5.63011C133.845 5.63011 133.798 5.54731 133.679 5.33441C133.537 5.08602 133.359 4.83763 133.193 4.68387C135.089 4.12796 135.895 3.0043 135.99 1.3129C136.013 0.910752 136.013 0.555914 135.978 0.224731C136.393 0.248387 136.76 0.295699 137.08 0.343011C137.222 0.366666 137.317 0.40215 137.317 0.484946C137.317 0.567742 137.293 0.615054 137.234 0.69785C137.175 0.768817 137.151 0.875269 137.116 1.30108C137.424 3.24086 138.692 4.08065 140.185 4.55376ZM130.717 2.23548H132.032C132.932 2.23548 133.217 2.21183 133.288 2.21183C133.406 2.21183 133.418 2.22366 133.418 2.34194V3.18172C133.418 3.31183 133.406 3.32366 133.288 3.32366C133.217 3.32366 132.932 3.3 132.032 3.3H130.717C129.828 3.3 129.532 3.32366 129.472 3.32366C129.354 3.32366 129.342 3.31183 129.342 3.18172V2.34194C129.342 2.22366 129.354 2.21183 129.472 2.21183C129.532 2.21183 129.828 2.23548 130.717 2.23548ZM130.989 0.615054H131.949C132.707 0.615054 132.944 0.591398 133.015 0.591398C133.134 0.591398 133.146 0.603226 133.146 0.721505V1.51398C133.146 1.62043 133.134 1.63226 133.015 1.63226C132.944 1.63226 132.707 1.6086 131.949 1.6086H130.989C130.219 1.6086 129.982 1.63226 129.911 1.63226C129.804 1.63226 129.792 1.62043 129.792 1.51398V0.721505C129.792 0.603226 129.804 0.591398 129.911 0.591398C129.982 0.591398 130.219 0.615054 130.989 0.615054ZM131.06 3.91505H131.819C132.518 3.91505 132.731 3.8914 132.802 3.8914C132.933 3.8914 132.944 3.90323 132.944 4.02151V4.79032C132.944 4.9086 132.933 4.92043 132.802 4.92043C132.731 4.92043 132.518 4.89677 131.819 4.89677H131.06C130.337 4.89677 130.124 4.92043 130.053 4.92043C129.934 4.92043 129.923 4.9086 129.923 4.79032V4.02151C129.923 3.90323 129.934 3.8914 130.053 3.8914C130.124 3.8914 130.337 3.91505 131.06 3.91505ZM131.06 5.51183H131.819C132.518 5.51183 132.731 5.48817 132.802 5.48817C132.933 5.48817 132.944 5.5 132.944 5.61828V6.37527C132.944 6.49355 132.933 6.50538 132.802 6.50538C132.731 6.50538 132.518 6.48172 131.819 6.48172H131.06C130.337 6.48172 130.124 6.50538 130.053 6.50538C129.934 6.50538 129.923 6.49355 129.923 6.37527V5.61828C129.923 5.5 129.934 5.48817 130.053 5.48817C130.124 5.48817 130.337 5.51183 131.06 5.51183ZM133.963 8.2914L133.371 7.84194C133.229 7.73548 133.241 7.71183 133.324 7.6172C133.726 7.17957 134.07 6.64731 134.307 6.13871C134.366 6.02043 134.39 6.0086 134.544 6.0914L135.137 6.39892C135.291 6.48172 135.302 6.50538 135.255 6.62366C135.006 7.20323 134.686 7.73548 134.224 8.27957C134.177 8.33871 134.153 8.36237 134.106 8.36237C134.07 8.36237 134.023 8.33871 133.963 8.2914ZM137.613 7.51075C138.04 7.14409 138.348 6.77742 138.573 6.44624C138.68 6.29247 138.739 6.16237 138.798 5.99677C139.118 6.0914 139.438 6.20968 139.711 6.35161C139.877 6.43441 139.924 6.49355 139.924 6.55269C139.924 6.64731 139.877 6.6828 139.794 6.73011C139.723 6.77742 139.651 6.87204 139.592 6.95484C139.367 7.26237 139.118 7.59355 138.798 7.92473C138.68 8.04301 138.609 8.11398 138.538 8.11398C138.455 8.11398 138.383 8.04301 138.229 7.92473C138.028 7.75914 137.838 7.62903 137.613 7.51075ZM137.661 2.64946C138.111 2.22366 138.407 1.83333 138.597 1.52581C138.703 1.37204 138.763 1.24194 138.81 1.07634C139.118 1.1828 139.45 1.32473 139.699 1.45484C139.853 1.53763 139.888 1.56129 139.888 1.63226C139.888 1.71505 139.841 1.75054 139.77 1.80968C139.711 1.85699 139.64 1.93978 139.568 2.04624C139.367 2.34194 139.166 2.62581 138.822 2.98064C138.68 3.12258 138.609 3.19355 138.538 3.19355C138.466 3.19355 138.395 3.13441 138.265 3.02796C138.052 2.85054 137.85 2.72043 137.661 2.64946ZM134.2 3.31183L133.62 2.92151C133.478 2.82688 133.478 2.80323 133.561 2.7086C133.916 2.29462 134.212 1.78602 134.414 1.26559C134.461 1.13548 134.473 1.15914 134.639 1.21828L135.255 1.45484C135.397 1.51398 135.409 1.53763 135.374 1.65591C135.137 2.25914 134.864 2.7914 134.449 3.3C134.402 3.35914 134.378 3.3828 134.343 3.3828C134.307 3.3828 134.26 3.35914 134.2 3.31183Z" fill="#009770"/>
<path d="M146.501 2.30645C146.489 1.93978 146.489 1.64409 146.477 1.32473C146.453 0.981721 146.43 0.816129 146.335 0.46129C146.868 0.496774 147.437 0.567742 147.721 0.626881C147.923 0.662366 148.053 0.745161 148.053 0.851613C148.053 0.946236 148.018 1.00538 147.946 1.12366C147.911 1.19462 147.875 1.3129 147.852 1.46667C147.84 1.62043 147.84 1.77419 147.828 2.22366C149.108 2.17634 150.328 2.16452 151.466 2.16452C151.608 2.16452 151.632 2.18817 151.644 2.34194C151.655 2.63763 151.655 2.94516 151.644 3.24086C151.644 3.37097 151.584 3.40645 151.442 3.39462C150.21 3.35914 149.06 3.35914 147.828 3.37097C147.828 4.09247 147.828 4.84946 147.84 5.57097C147.958 5.89032 148.018 6.35161 148.018 6.74194C148.018 8.11398 147.461 9.54516 145.908 10.5624C145.707 10.6925 145.553 10.7871 145.446 10.7871C145.339 10.7871 145.209 10.7043 145.091 10.6097C144.818 10.3849 144.498 10.2312 144.19 10.1366C145.576 9.52151 146.406 8.52796 146.619 7.53441C146.382 7.87742 145.896 8.00753 145.505 8.00753C144.569 8.00753 143.858 7.33333 143.858 6.19785C143.858 5.09785 144.688 4.42366 145.648 4.42366C146.003 4.42366 146.359 4.49462 146.548 4.66021C146.548 4.24624 146.536 3.84409 146.536 3.45376C145.043 3.53656 143.372 3.67849 142.436 3.8086C142.175 3.84409 141.986 3.95054 141.879 3.95054C141.761 3.95054 141.713 3.90323 141.678 3.78495C141.583 3.54839 141.476 3.07527 141.382 2.59032C141.82 2.63763 142.199 2.59032 142.827 2.54301C143.55 2.48387 145.079 2.38925 146.501 2.30645ZM145.742 5.34624C145.375 5.34624 144.96 5.59462 144.96 6.11505C144.96 6.63548 145.292 6.91935 145.719 6.91935C146.157 6.91935 146.524 6.64731 146.524 6.10323C146.524 5.61828 146.216 5.34624 145.742 5.34624Z" fill="#009770"/>
<path d="M157.165 5.06237L157.177 5.09785C157.841 4.71936 158.398 4.56559 159.061 4.56559C160.791 4.56559 162 5.70108 162 7.4043C162 9.37957 160.4 10.6452 157.864 10.6452C156.371 10.6452 155.471 10.0065 155.471 8.90645C155.471 8.11398 156.217 7.46344 157.142 7.46344C158.255 7.46344 159.073 8.05484 159.369 9.19032C160.199 8.81183 160.578 8.2914 160.578 7.39247C160.578 6.31613 159.82 5.60645 158.718 5.60645C157.734 5.60645 156.644 6.04409 155.684 6.86021C155.34 7.16774 155.009 7.51075 154.653 7.86559C154.57 7.94839 154.511 7.9957 154.452 7.9957C154.404 7.9957 154.345 7.96022 154.274 7.88925C154.025 7.67634 153.764 7.36882 153.575 7.12043C153.504 7.02581 153.539 6.94301 153.634 6.84839C154.558 6.10323 155.376 5.34624 156.442 4.23441C157.177 3.47742 157.734 2.88602 158.279 2.21183C157.568 2.34194 156.727 2.50753 155.992 2.66129C155.838 2.69677 155.684 2.73226 155.494 2.80323C155.435 2.82688 155.317 2.86237 155.257 2.86237C155.139 2.86237 155.056 2.80323 154.997 2.66129C154.854 2.38925 154.748 2.05806 154.582 1.38387C154.937 1.43118 155.328 1.43118 155.684 1.40753C156.407 1.33656 157.45 1.1828 158.374 1.00538C158.67 0.946236 158.907 0.887097 159.026 0.827957C159.085 0.792473 159.192 0.733333 159.251 0.733333C159.369 0.733333 159.44 0.768817 159.523 0.827957C159.879 1.1 160.116 1.33656 160.317 1.58495C160.412 1.6914 160.448 1.77419 160.448 1.86882C160.448 1.9871 160.377 2.09355 160.246 2.15269C160.045 2.24731 159.95 2.33011 159.725 2.53118C158.86 3.37097 158.066 4.19892 157.165 5.06237ZM158.196 9.48602C158.042 8.83548 157.687 8.46882 157.189 8.46882C156.845 8.46882 156.62 8.66989 156.62 8.91828C156.62 9.28495 156.94 9.53333 157.651 9.53333C157.864 9.53333 158.018 9.52151 158.196 9.48602Z" fill="#009770"/>
</g>
</svg>
