<svg width="78" height="300" viewBox="0 0 78 300" fill="none" xmlns="http://www.w3.org/2000/svg">
<path d="M54.7037 6.82499C50.998 5.31415 43.1429 5.02531 38.7494 8.06921C30.4949 13.8015 38.5497 34.8643 47.4255 39.0191C51.3975 40.8633 56.9005 39.5746 60.4952 36.1975C64.5115 32.4648 64.9997 27.3102 65.155 25.8882C65.8651 18.4673 63.4908 10.4243 54.6816 6.82499H54.7037Z" fill="#1C2546"/>
<path d="M63.7132 50.4618C50.0001 48.5066 54.2605 40.708 56.9232 30.3765C57.7442 27.1993 41.3905 32.8649 40.4807 37.7752C40.0813 39.8859 40.8136 42.7965 40.2145 45.1961C39.3713 48.5066 35.6434 50.1063 33.6242 50.6395C29.6966 51.6838 26.7232 50.9284 26.2572 51.9948C24.5264 56.1941 30.4511 65.7701 33.6686 66.7921C49.0016 71.7468 67.7295 51.0394 63.7132 50.4618Z" fill="#EB8E6C"/>
<path d="M72.3015 271.71C70.3711 268.244 63.0264 267.622 61.1181 270.066C60.2083 271.244 61.0515 272.488 59.8089 275.11C58.8991 277.021 50.2674 287.863 49.8901 289.107C49.0691 291.729 49.3354 295.062 53.3961 296.262C57.1905 297.395 70.6817 285.486 71.8578 282.797C71.9909 282.508 73.2335 281.975 72.3015 279.62C71.303 277.087 72.8119 272.666 72.3015 271.733V271.71Z" fill="#EB8E6C"/>
<path d="M34.1796 272.266C34.4015 269.689 34.934 269.311 34.5124 268.2C33.1144 264.623 25.3037 263.179 23.2401 265.667C21.8422 267.333 23.9724 269.666 22.1529 273.355C21.6869 274.266 9.06099 290.285 9.2385 291.396C9.41602 292.462 13.5655 292.062 14.675 293.062C18.1365 296.15 23.9945 288.907 25.57 289.507C27.7224 290.329 33.292 283.508 34.5346 281.598C35.866 279.531 33.758 277.709 34.2018 272.266H34.1796Z" fill="#EB8E6C"/>
<path d="M49.0463 140.756C42.0122 132.358 32.3597 120.382 27.1008 125.337C23.7946 128.447 17.8034 154.465 19.8005 180.216C20.3108 186.659 22.8626 242.982 22.3523 253.225C22.0194 259.801 22.3523 269.133 22.3523 269.133L38.9722 271.51C38.9722 271.51 41.1912 228.185 40.9027 222.23C40.7696 219.831 41.058 217.409 41.7237 215.098C44.2977 206.322 46.5611 178.638 43.5211 165.196C42.6336 161.264 58.4991 151.999 49.0685 140.756H49.0463Z" fill="#25AA7A"/>
<path d="M38.0847 148.91C35.0447 150.51 40.3702 182.926 40.3259 189.481C40.2815 193.747 39.8599 197.257 39.3495 201.567C38.6395 207.522 38.3066 207.455 37.8628 211.943C37.7518 212.965 37.4634 216.031 37.3746 225.03C37.2637 234.339 37.5521 233.606 37.3746 236.628C36.9086 244.671 35.0447 247.27 33.669 254.647C32.9811 258.357 32.3598 263.578 32.6926 270.155L38.9501 271.532C40.3258 264.334 43.1883 257.068 42.0344 231.184C41.9235 228.762 43.4102 216.987 43.6321 214.587C44.4087 206.366 46.5611 178.66 43.499 165.218C43.2771 164.219 44.1424 162.863 45.4072 161.219C42.2785 156.975 39.3273 148.288 38.1069 148.932L38.0847 148.91Z" fill="#219872"/>
<path d="M71.9234 170.884C72.8998 159.42 74.0093 156.22 72.7666 149.666C71.9234 145.111 66.4204 128.292 63.6911 125.337C55.4144 116.339 38.5059 120.782 35.9985 127.848C35.71 128.647 37.463 141.778 38.4394 147.977C38.6835 149.577 43.3211 188.014 51.4646 214.032C52.7073 217.965 58.7206 271.933 59.8301 273.577C59.8301 273.577 76.8717 274.688 76.9161 273.599C77.3377 262.357 76.9161 249.403 77.0049 239.227C77.027 235.695 71.4131 176.794 71.9234 170.884Z" fill="#50BC8F"/>
<path d="M72.146 277.865C71.5912 277.887 71.3471 279.998 70.4595 281.264C68.7509 283.664 64.7568 287.974 59.8973 290.374C49.335 295.617 49.1132 290.951 49.8898 289.107C50.733 287.13 47.4046 290.374 46.2951 291.662C45.7182 292.307 41.9016 297.372 42.8779 298.328C43.4992 298.95 44.2536 299.017 45.6294 299.172C47.1827 299.35 48.7359 299.661 50.2892 299.816C55.5703 300.305 58.0777 299.683 59.631 299.505C60.4298 299.417 62.4047 299.194 64.5127 298.017C66.3989 296.95 67.819 291.062 69.927 289.752C70.5483 289.374 69.816 292.596 69.9048 293.04C70.1267 294.351 70.4373 294.106 71.6134 294.351C72.1237 294.462 73.8323 291.018 73.8545 287.841C73.8989 282.797 72.9004 277.82 72.1681 277.865H72.146Z" fill="#226386"/>
<path d="M34.2685 276.198C33.7138 276.221 33.4697 278.331 32.5821 279.598C30.8735 281.997 26.8794 286.308 22.0199 288.707C11.4577 293.951 11.2357 289.285 12.0124 287.441C12.8556 285.463 9.52716 288.707 8.41768 289.996C7.84075 290.64 4.02413 295.706 5.00047 296.661C5.62177 297.284 6.3762 297.35 7.75195 297.506C9.30522 297.683 10.8585 297.994 12.4118 298.15C17.6929 298.639 20.2003 298.017 21.7536 297.839C22.5524 297.75 24.5273 297.528 26.6353 296.35C28.5214 295.284 29.9415 289.396 32.0496 288.085C32.6709 287.707 31.9386 290.929 32.0273 291.373C32.2492 292.684 32.5599 292.44 33.736 292.684C34.2463 292.795 35.9549 289.352 35.9771 286.174C36.0215 281.131 35.023 276.154 34.2907 276.198H34.2685Z" fill="#226386"/>
<path d="M22.3083 54.3275C21.7092 55.083 17.4266 59.4155 17.005 61.193C16.3837 63.9258 15.9177 66.6142 11.0804 72.8353C8.08481 76.7012 -7.2038 91.7652 6.08775 101.786C7.95167 103.208 22.5968 98.4751 22.619 79.4563C22.6412 64.2146 28.7655 55.5273 28.6768 51.3947C28.6768 50.6837 24.3054 51.8169 22.2862 54.3275H22.3083Z" fill="#9BD2D4"/>
<path d="M14.5413 79.9011C12.6773 82.8783 9.12704 89.8104 10.1256 101.297C13.8534 99.8308 19.068 95.8982 21.4201 88.2107C21.2425 86.9665 21.1538 85.6778 21.2204 84.3225C21.3313 81.3675 22.0192 78.7902 22.7958 76.7017C22.9733 74.5909 23.3727 72.6135 23.9053 70.7472C21.9748 71.3249 17.5813 75.1019 14.5857 79.9011H14.5413Z" fill="#CCEDE8"/>
<path d="M49.2458 38.2417C47.1156 39.5304 44.2531 40.5302 40.3034 40.5524C40.4143 41.9299 40.4809 43.6185 40.3034 44.685C40.8803 44.685 41.4128 44.685 42.0785 44.5739C49.6895 43.4408 53.4396 36.642 53.9722 34.709C53.9278 34.5757 53.8834 34.4424 53.7946 34.3091C53.2399 34.7757 51.7532 36.6865 49.2458 38.2195V38.2417Z" fill="#C36252"/>
<path d="M49.8227 8.8692C48.7354 8.31375 44.6303 6.4252 40.3034 8.20265C34.4897 10.6022 34.0681 17.4454 33.8905 18.6008C33.6243 20.3116 33.5355 22.9333 33.8905 26.4882C34.2012 29.4655 33.469 32.2872 34.756 35.6644C35.7323 38.1972 36.9749 39.8414 39.2161 41.1078C45.8286 44.8182 54.8819 35.7977 56.6349 31.1319C57.1896 29.6432 59.2089 24.022 56.8568 17.6454C56.1911 15.8235 54.5047 11.2466 49.8227 8.8692Z" fill="#EB8E6C"/>
<path d="M59.4529 18.6675C58.41 15.5125 57.6999 13.3573 55.7251 11.1577C54.5046 9.8024 53.262 8.95812 52.5519 8.53598C51.8862 8.13605 50.0889 7.1362 47.6924 6.66962C46.2501 6.403 44.6081 6.31415 42.8551 6.69186C42.5444 6.75851 42.2338 6.84739 41.901 6.93626C30.4068 9.6691 33.1805 22.489 33.7352 24.7108C33.0917 17.6677 50.333 14.7348 50.2886 15.6236C49.9336 25.6662 55.6141 25.0219 60.0742 24.7775C60.1852 23.9554 60.2295 23.2666 60.2073 22.6001C60.1408 21.1559 59.8745 19.9783 59.4307 18.6452L59.4529 18.6675Z" fill="#1C2546"/>
<path d="M56.8787 23.6888C55.6361 23.3333 54.4156 24.8886 54.349 24.9775C52.5739 27.3548 53.4615 32.0873 54.926 32.5095C56.2574 32.8872 58.6982 29.9988 58.6095 27.1327C58.5651 25.9329 58.0769 24.0221 56.8565 23.6888H56.8787Z" fill="#EB8E6C"/>
<path d="M55.3926 30.0658L55.3053 30.1533C55.3053 30.1533 55.3489 30.1095 55.3926 30.0658Z" fill="#C36252"/>
<path d="M55.2596 26.3774C54.7936 26.5107 54.4386 26.9106 54.2611 27.4439C54.1945 27.6438 54.3055 27.8438 54.5052 27.866C54.6383 27.8882 54.7715 27.7993 54.8159 27.6438C54.9268 27.3105 55.1487 27.0661 55.415 26.9773C55.7922 26.8662 56.1916 27.0884 56.3469 27.3772C56.5245 27.6883 56.48 28.1993 56.236 28.7992C56.0584 29.2435 55.77 29.6212 55.5481 29.8434C55.8144 29.5546 55.7034 29.6879 55.5481 29.8434C55.5037 29.8879 55.4594 29.9323 55.4372 29.9767C55.3928 30.0212 55.3706 30.0656 55.3262 30.11C54.7936 30.6877 55.2597 30.7544 55.304 30.7544C55.7034 30.7544 56.125 30.2211 56.3469 29.8879C56.8795 29.088 57.3454 27.8438 56.8573 27.0217C56.591 26.5551 55.9253 26.1552 55.2818 26.3552L55.2596 26.3774Z" fill="#C36252"/>
<path d="M55.5483 29.8881C55.5483 29.8881 55.4372 29.9992 55.3928 30.0659C55.3928 30.0659 55.3928 30.0659 55.415 30.0437C55.4595 29.9992 55.5039 29.9547 55.5261 29.9103L55.5483 29.8881Z" fill="#C36252"/>
<path d="M58.3216 25.1553C58.5657 25.7997 58.8098 26.8439 58.5435 28.2659C58.1663 30.2433 56.9902 31.8875 56.1248 32.1985C56.1248 32.1985 56.1248 32.1985 56.1248 32.2207C55.9917 32.5984 55.5922 33.576 54.6381 33.576C53.9058 33.576 53.7061 33.0206 53.6617 32.554C53.6396 32.3763 53.7727 32.1985 53.928 32.1763C54.0833 32.1763 54.2165 32.2874 54.2387 32.4651C54.2831 32.865 54.394 32.9317 54.6381 32.9317C55.1485 32.9317 55.3925 32.4651 55.5922 31.9541C55.6588 31.7764 55.7254 31.5986 55.9029 31.5764C56.4798 31.4875 57.6115 29.9767 57.9887 28.1104C58.1884 27.1105 58.1218 26.1996 57.8112 25.3997C57.678 25.0887 57.5227 24.6665 57.1233 24.4221C56.7017 24.1777 56.258 24.2888 56.0583 24.3333C55.3926 24.511 54.9488 25.0442 54.7269 25.4219C54.6381 25.5553 54.4828 25.5997 54.3496 25.533C54.1943 25.4442 54.1499 25.222 54.2387 25.0664C54.5272 24.5999 55.0597 23.9111 55.9251 23.6889C56.147 23.6223 56.7683 23.4667 57.3896 23.8222C57.9666 24.1555 58.2106 24.7554 58.3438 25.1109L58.3216 25.1553Z" fill="#C36252"/>
<path d="M54.3043 27.7549C54.3043 27.7549 54.5484 27.9771 54.7703 28.3326C55.1919 29.0214 54.9035 29.8879 55.0144 29.9101C55.1032 29.9101 55.3029 29.4657 55.3473 28.9547C55.3473 28.7325 55.3695 28.2437 55.081 27.9549C54.8147 27.6661 54.3487 27.6439 54.3043 27.7549Z" fill="#C36252"/>
<path d="M48.7361 22.6668C47.4269 22.4224 46.1177 22.3335 44.7863 22.378C43.9653 22.4224 43.1221 22.5113 42.3011 22.6668C41.9683 22.7335 41.7686 23.0445 41.8351 23.3556C41.9017 23.6666 42.1901 23.8666 42.5008 23.7999C43.2774 23.6666 44.0541 23.5777 44.8307 23.5333C46.0734 23.4889 47.3159 23.5777 48.5364 23.7999C48.847 23.8666 49.1355 23.6666 49.2021 23.3556C49.2687 23.0223 49.0689 22.7112 48.7361 22.6668Z" fill="#49302A"/>
<path d="M41.4791 32.2208C41.4569 32.0875 41.3016 31.9986 41.1463 32.0208C39.8815 32.243 39.0161 32.1541 38.7054 31.732C38.4391 31.3987 38.5501 30.8655 38.7942 29.8434C38.8829 29.4657 38.9717 29.0658 39.0605 28.5548C39.2602 27.5105 39.3933 26.4663 39.4821 25.422C39.4821 25.2665 39.3711 25.1554 39.2158 25.1554C39.0605 25.1554 38.9273 25.2665 38.9051 25.3998C38.8164 26.4218 38.6832 27.4661 38.4835 28.4881C38.3947 28.9769 38.306 29.3991 38.2172 29.7545C37.9732 30.8877 37.8178 31.5098 38.2172 32.043C38.6167 32.554 39.3933 32.754 40.5471 32.6429C40.769 32.6207 40.9909 32.5763 41.235 32.5318C41.3903 32.5096 41.5013 32.3541 41.4791 32.2208Z" fill="#C36252"/>
<path d="M44.6536 24.7996C44.2098 24.7996 43.8326 25.3772 43.8326 26.0882C43.8326 26.7992 44.2098 27.3769 44.6536 27.3769C45.0974 27.3769 45.4746 26.7992 45.4746 26.0882C45.4746 25.3772 45.0974 24.7996 44.6536 24.7996Z" fill="#49302A"/>
<path d="M36.8196 24.7996C36.3758 24.7996 35.9986 25.3772 35.9986 26.0882C35.9986 26.7992 36.3758 27.3769 36.8196 27.3769C37.2634 27.3769 37.6406 26.7992 37.6406 26.0882C37.6406 25.3772 37.2634 24.7996 36.8196 24.7996Z" fill="#49302A"/>
<path d="M39.1495 22.6442C38.506 22.5109 37.8402 22.4221 37.1523 22.3776C36.2648 22.311 35.355 22.2887 34.4452 22.3332C34.1124 22.3332 33.8683 22.622 33.8905 22.9553C33.9127 23.2663 34.179 23.5107 34.4896 23.4885C35.3328 23.4441 36.1982 23.4663 37.0414 23.533C37.6849 23.5774 38.3062 23.6663 38.9275 23.7774C39.2382 23.844 39.5266 23.644 39.5932 23.333C39.6598 23.0219 39.4601 22.6887 39.1272 22.622L39.1495 22.6442Z" fill="#49302A"/>
<path d="M43.9421 34.3533L42.3889 34.5089C41.1907 34.6199 39.9702 34.6199 38.772 34.5089L37.951 34.42C37.596 34.3756 37.3297 34.6644 37.485 34.8866C37.9732 35.5754 38.9717 36.3974 40.5916 36.3752C42.2114 36.3752 43.9643 35.4865 44.4303 34.7977C44.5856 34.5755 44.3194 34.3089 43.9644 34.3311L43.9421 34.3533Z" fill="#C36252"/>
<path d="M47.4709 28.0877C46.2948 28.2433 45.4072 28.9543 45.496 29.7097C45.5847 30.4429 46.6277 30.9317 47.8037 30.7762C48.9798 30.6206 49.8673 29.9097 49.7785 29.1542C49.6898 28.421 48.6469 27.9322 47.4709 28.0877Z" fill="#DD8064"/>
<path d="M63.7135 50.4615C63.7135 50.4615 58.6764 50.706 42.8331 50.9504C31.3167 51.1281 28.6983 51.3725 28.6983 51.3725C28.6983 51.3725 13.9645 78.7676 20.3551 90.1877C21.6421 92.4984 21.4867 105.696 25.7027 126.914C26.5238 131.047 61.1395 132.669 63.4029 123.893C65.0449 117.472 70.2151 105.74 71.258 80.5672C71.5686 73.3019 80.1116 72.5909 77.0051 58.5268C75.5628 51.9724 63.6691 50.4615 63.6691 50.4615H63.7135Z" fill="#9EC7C8"/>
<path d="M7.66567 59.0164L44.2227 53.5132L51.5695 102.443L15.0125 107.946L7.66567 59.0164Z" fill="#E2EFE5"/>
<path d="M6.8447 58.8904L40.3955 53.8397L47.7654 102.924L14.2146 107.974L6.8447 58.8904Z" fill="#096E92"/>
<path d="M56.6569 98.6306C53.4394 98.5639 50.7101 96.7865 45.9172 93.6981C36.2869 87.4548 44.8521 101.208 43.6095 101.874C41.7899 102.852 35.3771 97.4308 45.4734 108.718C49.645 113.406 52.7294 115.916 55.8803 115.183C59.1643 114.428 67.1526 100.897 70.8805 92.965C71.0802 90.3654 70.6807 86.5883 71.1245 83.6333C67.9292 87.7659 60.873 98.6973 56.6569 98.6084V98.6306Z" fill="#5999AD"/>
<path d="M72.3897 53.9724C70.5701 53.6391 69.1278 54.7945 67.2195 56.2609C64.2017 58.5716 62.4487 61.0378 62.0493 61.6377C61.1839 62.9041 59.9413 64.8816 57.2564 71.8581C55.3702 76.7905 55.459 77.1904 53.5285 82.2117C51.5537 87.3886 51.2652 87.5219 50.067 90.9657C47.8036 97.5423 46.6942 100.897 48.0699 103.341C49.5566 105.963 53.1291 107.429 56.036 106.83C58.388 106.341 59.0093 107.074 61.7165 103.23C67.508 95.0539 71.0805 88.5217 72.2343 86.2555C74.076 82.6117 76.3616 78.0569 77.5376 71.7247C77.5376 71.7247 80.2892 55.3944 72.3675 53.9724H72.3897Z" fill="#9BD2D4"/>
<path d="M45.7619 91.8987C45.8728 91.5654 46.2722 90.2101 45.3847 89.5436C44.9631 89.2325 44.1642 88.9659 43.3654 89.1214C42.7219 89.2325 42.4556 89.5436 42.0118 89.4769C41.5014 89.388 41.5458 88.9437 41.102 88.766C40.5029 88.5216 39.6154 89.0325 38.6612 89.4991C36.8861 90.3656 37.5296 89.788 34.2899 91.1877C31.6715 92.3209 31.6493 92.5208 30.8283 92.6541C29.031 92.9208 27.6552 92.2098 26.7676 91.8098C21.5974 89.3881 16.0279 88.8104 13.9642 88.6993C11.9672 88.5882 9.85915 88.4771 7.44049 89.4325C6.75261 89.6991 3.3354 91.0544 2.42563 93.7428C1.95965 95.1648 2.42562 96.2979 2.62532 96.8089C3.93451 99.9417 8.12836 101.03 9.30441 101.319C10.4361 101.608 12.7438 102.075 21.3977 100.742C25.9022 100.053 30.0073 99.4085 35.3771 97.6977C39.4822 96.3868 44.9408 94.5871 45.7619 91.8987Z" fill="#DF7C5D"/>
<path d="M58.7208 68.2136C58.4323 68.0581 58.0773 68.147 57.922 68.458C55.6808 72.8794 52.1305 84.3218 50.8213 88.6988C50.7103 89.0765 50.2444 89.232 49.9337 88.9876C49.4455 88.6322 50.089 91.9427 50.3997 90.9429C50.6881 91.3428 51.2873 91.2317 51.4204 90.7651C51.4648 90.5874 56.3021 74.2792 58.9649 68.9691C59.098 68.7024 59.0092 68.3469 58.7208 68.2136Z" fill="#5999AD"/>
<path d="M73.9871 54.6832C72.7001 54.2388 71.5684 54.5721 70.6586 54.8387C68.4397 55.5053 66.842 56.8828 65.7991 58.0604C65.6216 58.2603 65.6438 58.5936 65.8657 58.7491C66.0654 58.9047 66.3539 58.8824 66.5314 58.6825C67.4634 57.616 68.9278 56.3496 70.9249 55.7497C71.7459 55.5053 72.6779 55.2387 73.6764 55.5719C75.0522 56.0607 75.7401 57.4383 76.0285 58.1937C76.1173 58.4381 76.3613 58.5714 76.6054 58.4825C76.8717 58.4159 77.0271 58.1048 76.9383 57.8604C76.5833 56.9273 75.7622 55.2609 73.9871 54.661V54.6832Z" fill="#5999AD"/>
<path d="M39.3487 91.9209C38.7496 91.5654 37.0853 90.5656 35.177 89.1214C33.7125 88.0105 33.2909 87.5661 32.9581 87.0329C32.2258 85.8998 32.4699 85.4554 31.7598 84.1446C31.1163 82.967 30.3397 82.256 29.3634 81.3895C27.8323 80.0342 27.566 80.2786 26.2346 79.0344C25.7243 78.5678 23.0394 77.5902 21.1754 76.9237C19.8662 76.4349 18.5571 75.5239 17.9801 75.5683C17.3366 75.6128 16.7375 76.3682 16.6265 77.0792C16.5821 77.4124 16.3825 77.9457 16.9816 78.4345C18.7567 79.8787 20.1325 80.1675 21.2863 80.5452C22.5068 80.9229 23.8382 81.5006 23.7494 81.7006C23.5719 82.0338 22.2405 81.7672 21.1532 81.2784C19.9106 80.7007 17.8692 80.0786 16.1606 79.612C14.6739 79.2121 13.3647 78.1234 11.1679 76.9014C9.68121 76.0793 8.94894 75.7905 7.551 75.6794C7.32911 75.6794 6.48594 75.5905 6.19747 76.0349C6.53032 75.9905 5.90901 76.5015 6.19747 76.0349C5.88682 76.0793 5.66492 77.2569 5.77586 78.3234C5.95338 79.7676 6.7966 81.1007 7.04069 81.5006C7.30696 81.9005 7.44005 82.0783 7.61757 82.4782C7.99479 83.4114 7.90609 83.6558 8.01703 84.3445C8.41644 86.9441 9.72559 86.2109 9.99187 87.4329C10.236 88.5438 10.3691 89.1214 10.5466 89.4547C11.0348 90.4101 12.0777 90.6545 13.9194 91.2321C17.6251 92.4097 16.8707 92.543 19.1784 93.0985C22.1296 93.8317 22.5512 93.4095 24.6148 94.0983C25.7243 94.476 26.9003 95.0315 28.9861 96.5201C35.1548 100.942 40.0809 102.808 42.5883 102.808C42.5883 102.808 45.5174 99.2974 46.6934 96.8978C48.2911 93.6317 42.1667 93.6762 39.3043 91.9654L39.3487 91.9209Z" fill="#EB8E6C"/>
<path d="M61.2727 0.159553C58.8984 -0.307029 55.5922 0.226209 54.3274 2.07032C52.9738 4.02552 52.5522 9.64671 56.7238 12.4684C57.8555 13.2238 58.854 13.6682 59.6528 14.0237C62.0049 15.0457 63.6692 15.779 65.2224 15.3346C67.3083 14.7347 68.1071 12.3351 68.2624 11.8686C69.7047 7.55822 66.4872 1.2038 61.2948 0.181759L61.2727 0.159553Z" fill="#1C2546"/>
<path d="M58.8548 94.6092C58.0116 93.8093 55.7705 93.3428 52.6418 92.5429C46.7837 91.0321 42.124 89.699 41.9908 90.4322C41.0367 95.3646 41.4582 99.4972 35.6889 100.653C35.6889 100.653 41.3916 103.496 42.9005 104.119C45.3414 105.096 48.226 106.563 52.8858 107.651C54.3725 108.007 55.238 108.185 56.3475 107.918C59.6759 107.096 62.3386 102.83 61.6508 99.1417C61.2291 96.8532 59.6315 95.3424 58.8548 94.6092Z" fill="#9BD2D4"/>
<path d="M5.86598 77.7235L5.44437 78.1234C7.61895 80.3897 10.1264 81.2117 11.4799 81.6561C11.7462 81.745 11.9903 81.8116 12.1678 81.9005L12.3896 81.3673C12.1899 81.3006 11.9459 81.2118 11.6574 81.1229C10.2595 80.6785 7.92961 79.9231 5.86598 77.7457V77.7235Z" fill="#C36252"/>
<path d="M7.77407 83.1891C8.61727 84.0112 10.3037 85.4109 12.0566 85.4109V84.8333C10.5034 84.8333 8.9501 83.5446 8.17347 82.7892L7.77407 83.2113V83.1891Z" fill="#C36252"/>
</svg>
