<svg width="24" height="24" viewBox="0 0 24 24" fill="none" xmlns="http://www.w3.org/2000/svg">
<g id="Frame">
<path id="Vector" d="M22.8122 8.52278L10.7738 20.5603C10.6345 20.6996 10.4691 20.8101 10.2871 20.8855C10.1051 20.9609 9.90998 20.9997 9.71297 20.9997C9.51596 20.9997 9.32088 20.9609 9.13887 20.8855C8.95686 20.8101 8.79148 20.6996 8.65219 20.5603L1.93781 13.8103C1.65701 13.529 1.49929 13.1479 1.49929 12.7504C1.49929 12.353 1.65701 11.9718 1.93781 11.6906L4.18781 9.44059C4.46815 9.16018 4.84811 9.00217 5.24462 9.00112C5.64113 9.00006 6.02193 9.15605 6.30375 9.43496L9.73875 12.7415L9.74906 12.7518L18.4425 4.1859C18.7236 3.90595 19.1042 3.74878 19.5009 3.74878C19.8977 3.74878 20.2783 3.90595 20.5594 4.1859L22.8094 6.39465C22.9499 6.53388 23.0614 6.69951 23.1377 6.88203C23.2139 7.06455 23.2533 7.26033 23.2535 7.45813C23.2538 7.65592 23.2149 7.85181 23.1392 8.03453C23.0634 8.21725 22.9523 8.38318 22.8122 8.52278Z" fill="#FFC701"/>
</g>
</svg>
